<svg xmlns="http://www.w3.org/2000/svg" xmlns:xlink="http://www.w3.org/1999/xlink" width="1269" zoomAndPan="magnify" viewBox="0 0 951.75 167.999997" height="224" preserveAspectRatio="xMidYMid meet" version="1.0"><defs><g/></defs><g fill="#032b22" fill-opacity="1"><g transform="translate(33.167068, 110.243101)"><g><path d="M 40.308594 -71.800781 L 29.707031 -71.800781 L 6.402344 -5.457031 C 5.355469 -2.519531 3.359375 -0.734375 0 -0.839844 L 0 0 C 4.933594 0 12.597656 0 17.742188 0 L 17.742188 -0.839844 C 14.382812 -0.734375 12.386719 -1.574219 11.335938 -4.617188 C 11.128906 -5.355469 10.8125 -6.195312 10.601562 -6.929688 C 9.972656 -8.710938 10.078125 -10.289062 10.601562 -12.070312 L 12.804688 -17.949219 C 15.117188 -24.5625 23.617188 -20.996094 27.710938 -19.523438 C 36.109375 -16.796875 42.09375 -18.371094 45.769531 -26.136719 L 52.90625 -5.878906 C 54.0625 -2.308594 52.382812 -0.734375 48.8125 -0.839844 L 48.8125 0 L 70.015625 0 L 70.015625 -0.839844 C 66.238281 -0.734375 64.453125 -2.625 63.402344 -5.878906 Z M 45.136719 -28.238281 C 41.253906 -24.039062 35.902344 -26.664062 31.070312 -28.238281 C 24.144531 -30.546875 18.894531 -29.8125 15.222656 -25.089844 L 30.757812 -69.070312 Z M 45.136719 -28.238281 "/></g></g></g><g fill="#032b22" fill-opacity="1"><g transform="translate(106.332904, 110.243101)"><g><path d="M 49.652344 -52.277344 C 43.457031 -55.425781 36.949219 -57 30.652344 -57 C 15.117188 -57 1.574219 -44.195312 1.574219 -28.449219 C 1.574219 -19.734375 5.5625 -11.863281 11.757812 -6.71875 C 16.691406 -2.519531 23.09375 0 30.023438 0 C 43.457031 0 54.585938 -9.238281 57.734375 -21.625 L 56.789062 -21.625 C 53.222656 -11.335938 45.242188 -5.25 36.84375 -4.304688 C 23.410156 -2.835938 13.75 -14.066406 10.917969 -26.03125 C 7.976562 -38.523438 12.175781 -50.386719 21.203125 -53.535156 C 30.128906 -56.683594 38.210938 -53.222656 46.082031 -43.878906 Z M 49.652344 -52.277344 "/></g></g></g><g fill="#032b22" fill-opacity="1"><g transform="translate(167.531868, 110.243101)"><g><path d="M 49.652344 -52.277344 C 43.457031 -55.425781 36.949219 -57 30.652344 -57 C 15.117188 -57 1.574219 -44.195312 1.574219 -28.449219 C 1.574219 -19.734375 5.5625 -11.863281 11.757812 -6.71875 C 16.691406 -2.519531 23.09375 0 30.023438 0 C 43.457031 0 54.585938 -9.238281 57.734375 -21.625 L 56.789062 -21.625 C 53.222656 -11.335938 45.242188 -5.25 36.84375 -4.304688 C 23.410156 -2.835938 13.75 -14.066406 10.917969 -26.03125 C 7.976562 -38.523438 12.175781 -50.386719 21.203125 -53.535156 C 30.128906 -56.683594 38.210938 -53.222656 46.082031 -43.878906 Z M 49.652344 -52.277344 "/></g></g></g><g fill="#032b22" fill-opacity="1"><g transform="translate(228.730833, 110.243101)"><g><path d="M 29.917969 -57 C 45.664062 -57 58.46875 -44.195312 58.46875 -28.449219 C 58.46875 -12.703125 45.664062 0 29.917969 0 C 14.171875 0 1.46875 -12.703125 1.46875 -28.449219 C 1.46875 -44.195312 14.171875 -57 29.917969 -57 Z M 21.097656 -53.535156 C 11.128906 -50.070312 7.03125 -36.003906 11.96875 -22.148438 C 16.902344 -8.292969 28.867188 0.105469 38.839844 -3.359375 C 48.707031 -6.929688 52.800781 -20.996094 47.972656 -34.851562 C 43.039062 -48.707031 31.070312 -57.105469 21.097656 -53.535156 Z M 21.097656 -53.535156 "/></g></g></g><g fill="#032b22" fill-opacity="1"><g transform="translate(291.504387, 110.243101)"><g><path d="M 65.503906 -4.304688 L 64.769531 -4.933594 C 62.144531 -2.835938 59.308594 -5.144531 57.945312 -7.136719 C 52.695312 -15.011719 52.171875 -30.230469 48.917969 -41.988281 C 50.492188 -44.089844 52.382812 -46.398438 54.585938 -48.289062 C 60.253906 -53.222656 66.65625 -53.957031 69.808594 -45.871094 C 74.425781 -34.222656 74.109375 -20.363281 78.730469 -8.816406 C 80.722656 -3.882812 83.558594 0 89.960938 0 C 93.003906 0 96.050781 -1.257812 97.519531 -4.304688 L 96.785156 -4.933594 C 94.265625 -2.835938 91.324219 -5.144531 90.066406 -7.136719 C 83.769531 -16.585938 84.1875 -36.742188 78.625 -48.601562 C 75.894531 -54.480469 71.382812 -57 66.550781 -57 C 58.996094 -57 52.800781 -50.597656 48.183594 -44.296875 C 47.65625 -45.871094 47.132812 -47.238281 46.503906 -48.601562 C 43.773438 -54.480469 39.363281 -57 34.429688 -57 C 26.871094 -57 20.785156 -50.597656 16.164062 -44.402344 L 16.164062 -57 C 13.332031 -52.90625 6.195312 -50.070312 0 -50.070312 L 0 -49.128906 C 4.515625 -49.335938 6.71875 -46.292969 6.71875 -35.164062 L 6.71875 -14.800781 C 6.71875 -3.675781 4.515625 -0.734375 0 -0.945312 L 0 0 L 22.882812 0 L 22.882812 -0.945312 C 18.371094 -0.734375 16.164062 -3.675781 16.164062 -14.800781 L 16.164062 -41.042969 C 17.84375 -43.457031 20.050781 -46.1875 22.464844 -48.289062 C 28.238281 -53.222656 34.640625 -53.957031 37.789062 -45.871094 C 42.304688 -34.222656 41.988281 -20.363281 46.710938 -8.816406 C 48.707031 -3.882812 51.542969 0 57.839844 0 C 60.882812 0 63.929688 -1.257812 65.503906 -4.304688 Z M 65.503906 -4.304688 "/></g></g></g><g fill="#032b22" fill-opacity="1"><g transform="translate(391.543184, 110.243101)"><g><path d="M 65.503906 -4.304688 L 64.769531 -4.933594 C 62.144531 -2.835938 59.308594 -5.144531 57.945312 -7.136719 C 52.695312 -15.011719 52.171875 -30.230469 48.917969 -41.988281 C 50.492188 -44.089844 52.382812 -46.398438 54.585938 -48.289062 C 60.253906 -53.222656 66.65625 -53.957031 69.808594 -45.871094 C 74.425781 -34.222656 74.109375 -20.363281 78.730469 -8.816406 C 80.722656 -3.882812 83.558594 0 89.960938 0 C 93.003906 0 96.050781 -1.257812 97.519531 -4.304688 L 96.785156 -4.933594 C 94.265625 -2.835938 91.324219 -5.144531 90.066406 -7.136719 C 83.769531 -16.585938 84.1875 -36.742188 78.625 -48.601562 C 75.894531 -54.480469 71.382812 -57 66.550781 -57 C 58.996094 -57 52.800781 -50.597656 48.183594 -44.296875 C 47.65625 -45.871094 47.132812 -47.238281 46.503906 -48.601562 C 43.773438 -54.480469 39.363281 -57 34.429688 -57 C 26.871094 -57 20.785156 -50.597656 16.164062 -44.402344 L 16.164062 -57 C 13.332031 -52.90625 6.195312 -50.070312 0 -50.070312 L 0 -49.128906 C 4.515625 -49.335938 6.71875 -46.292969 6.71875 -35.164062 L 6.71875 -14.800781 C 6.71875 -3.675781 4.515625 -0.734375 0 -0.945312 L 0 0 L 22.882812 0 L 22.882812 -0.945312 C 18.371094 -0.734375 16.164062 -3.675781 16.164062 -14.800781 L 16.164062 -41.042969 C 17.84375 -43.457031 20.050781 -46.1875 22.464844 -48.289062 C 28.238281 -53.222656 34.640625 -53.957031 37.789062 -45.871094 C 42.304688 -34.222656 41.988281 -20.363281 46.710938 -8.816406 C 48.707031 -3.882812 51.542969 0 57.839844 0 C 60.882812 0 63.929688 -1.257812 65.503906 -4.304688 Z M 65.503906 -4.304688 "/></g></g></g><g fill="#032b22" fill-opacity="1"><g transform="translate(491.582004, 110.243101)"><g><path d="M 29.917969 -57 C 45.664062 -57 58.46875 -44.195312 58.46875 -28.449219 C 58.46875 -12.703125 45.664062 0 29.917969 0 C 14.171875 0 1.46875 -12.703125 1.46875 -28.449219 C 1.46875 -44.195312 14.171875 -57 29.917969 -57 Z M 21.097656 -53.535156 C 11.128906 -50.070312 7.03125 -36.003906 11.96875 -22.148438 C 16.902344 -8.292969 28.867188 0.105469 38.839844 -3.359375 C 48.707031 -6.929688 52.800781 -20.996094 47.972656 -34.851562 C 43.039062 -48.707031 31.070312 -57.105469 21.097656 -53.535156 Z M 21.097656 -53.535156 "/></g></g></g><g fill="#032b22" fill-opacity="1"><g transform="translate(554.355582, 110.243101)"><g><path d="M 47.550781 -14.800781 L 47.550781 -78.730469 C 44.71875 -74.636719 37.582031 -71.800781 31.386719 -71.800781 L 31.386719 -70.855469 C 35.902344 -71.066406 38.105469 -68.128906 38.105469 -57 L 38.105469 -44.71875 C 34.117188 -51.4375 27.816406 -57 19.523438 -57 C 6.402344 -57 0 -44.613281 0 -32.960938 C 0 -14.066406 11.128906 0 30.757812 0 L 54.269531 0 L 54.269531 -0.945312 C 49.757812 -0.734375 47.550781 -3.675781 47.550781 -14.800781 Z M 38.105469 -14.800781 C 38.105469 -5.5625 35.269531 -1.890625 30.128906 -1.890625 C 24.878906 -1.890625 18.476562 -6.613281 14.695312 -13.121094 C 9.65625 -21.9375 6.824219 -37.160156 12.804688 -46.1875 C 18.789062 -55.109375 31.070312 -55.425781 38.105469 -40.519531 Z M 38.105469 -14.800781 "/></g></g></g><g fill="#032b22" fill-opacity="1"><g transform="translate(611.250684, 110.243101)"><g><path d="M 59.730469 -4.304688 L 58.996094 -4.933594 C 56.476562 -2.835938 53.535156 -5.144531 52.277344 -7.136719 C 47.761719 -13.855469 46.710938 -26.03125 44.402344 -36.742188 C 41.570312 -50.597656 37.789062 -57 22.253906 -57 C 14.171875 -57 6.296875 -55.214844 0.105469 -52.277344 L 3.464844 -43.457031 C 5.773438 -46.609375 10.707031 -51.542969 15.640625 -53.746094 C 23.515625 -57.316406 30.546875 -52.695312 26.03125 -43.878906 C 20.890625 -33.484375 0.945312 -30.546875 0 -14.90625 C -0.523438 -5.144531 6.507812 0 15.640625 0 C 30.546875 0 35.902344 -11.757812 36.84375 -24.25 C 37.683594 -19.316406 38.734375 -14.484375 40.203125 -10.390625 C 42.304688 -4.722656 45.347656 0 52.171875 0 C 55.214844 0 58.15625 -1.257812 59.730469 -4.304688 Z M 34.117188 -39.679688 C 35.796875 -32.75 35.480469 -23.09375 33.066406 -16.269531 C 30.757812 -9.65625 24.25 -3.359375 16.480469 -5.25 C 10.496094 -6.71875 8.816406 -12.175781 9.867188 -17.320312 C 12.070312 -27.398438 23.410156 -31.070312 27.921875 -39.15625 C 29.601562 -42.09375 30.546875 -46.292969 29.707031 -49.757812 C 31.808594 -47.027344 33.171875 -43.457031 34.117188 -39.679688 Z M 34.117188 -39.679688 "/></g></g></g><g fill="#032b22" fill-opacity="1"><g transform="translate(673.394408, 110.243101)"><g><path d="M 0 -57 L 0 -55.109375 L 6.71875 -55.109375 L 6.71875 -12.910156 C 6.71875 -6.613281 9.238281 0 16.585938 0 C 22.359375 0 26.136719 -4.515625 29.289062 -8.921875 L 28.550781 -9.550781 C 22.570312 -2.519531 16.164062 -2.414062 16.164062 -12.910156 L 16.164062 -55.109375 L 29.289062 -55.109375 L 29.289062 -57 L 16.164062 -57 L 16.164062 -66.132812 L 15.222656 -66.132812 C 12.386719 -60.675781 5.355469 -57 0 -57 Z M 0 -57 "/></g></g></g><g fill="#032b22" fill-opacity="1"><g transform="translate(705.411005, 110.243101)"><g><path d="M 16.164062 -14.800781 L 16.164062 -57 C 13.332031 -52.90625 6.195312 -50.070312 0 -50.070312 L 0 -49.128906 C 4.515625 -49.335938 6.71875 -46.292969 6.71875 -35.164062 L 6.71875 -14.800781 C 6.71875 -3.675781 4.515625 -0.734375 0 -0.945312 L 0 0 L 22.882812 0 L 22.882812 -0.945312 C 18.371094 -0.734375 16.164062 -3.675781 16.164062 -14.800781 Z M 11.441406 -71.800781 C 7.664062 -71.800781 4.515625 -68.757812 4.515625 -64.976562 C 4.515625 -61.09375 7.664062 -58.050781 11.441406 -58.050781 C 15.222656 -58.050781 18.371094 -61.09375 18.371094 -64.976562 C 18.371094 -68.757812 15.222656 -71.800781 11.441406 -71.800781 Z M 11.441406 -71.800781 "/></g></g></g><g fill="#032b22" fill-opacity="1"><g transform="translate(730.919319, 110.243101)"><g><path d="M 29.917969 -57 C 45.664062 -57 58.46875 -44.195312 58.46875 -28.449219 C 58.46875 -12.703125 45.664062 0 29.917969 0 C 14.171875 0 1.46875 -12.703125 1.46875 -28.449219 C 1.46875 -44.195312 14.171875 -57 29.917969 -57 Z M 21.097656 -53.535156 C 11.128906 -50.070312 7.03125 -36.003906 11.96875 -22.148438 C 16.902344 -8.292969 28.867188 0.105469 38.839844 -3.359375 C 48.707031 -6.929688 52.800781 -20.996094 47.972656 -34.851562 C 43.039062 -48.707031 31.070312 -57.105469 21.097656 -53.535156 Z M 21.097656 -53.535156 "/></g></g></g><g fill="#032b22" fill-opacity="1"><g transform="translate(793.692851, 110.243101)"><g><path d="M 65.503906 -4.304688 L 64.769531 -4.933594 C 62.144531 -2.835938 59.308594 -5.144531 57.945312 -7.136719 C 51.644531 -16.585938 52.066406 -36.742188 46.503906 -48.601562 C 43.773438 -54.480469 39.363281 -57 34.429688 -57 C 26.871094 -57 20.785156 -50.597656 16.164062 -44.402344 L 16.164062 -57 C 13.332031 -52.90625 6.195312 -50.070312 0 -50.070312 L 0 -49.128906 C 4.515625 -49.335938 6.71875 -46.292969 6.71875 -35.164062 L 6.71875 -14.800781 C 6.71875 -3.675781 4.515625 -0.734375 0 -0.945312 L 0 0 L 22.882812 0 L 22.882812 -0.945312 C 18.371094 -0.734375 16.164062 -3.675781 16.164062 -14.800781 L 16.164062 -41.042969 C 17.84375 -43.457031 20.050781 -46.1875 22.464844 -48.289062 C 28.238281 -53.222656 34.640625 -53.957031 37.789062 -45.871094 C 42.304688 -34.222656 41.988281 -20.363281 46.710938 -8.816406 C 48.707031 -3.882812 51.542969 0 57.839844 0 C 60.882812 0 63.929688 -1.257812 65.503906 -4.304688 Z M 65.503906 -4.304688 "/></g></g><g transform="translate(861.924929, 110.243101)"><g><path d="M 2.414062 -22.988281 L 1.46875 -22.988281 L 1.46875 -8.710938 C 8.398438 -2.835938 17.214844 0 26.871094 0 C 34.011719 0 42.199219 -1.890625 46.398438 -7.453125 C 50.597656 -12.910156 50.386719 -22.148438 45.558594 -27.082031 C 38.210938 -34.535156 23.410156 -33.589844 14.066406 -38.316406 C 6.195312 -42.304688 8.921875 -49.230469 14.589844 -52.589844 C 18.265625 -54.902344 24.144531 -55.425781 28.238281 -55.003906 C 37.265625 -54.164062 42.199219 -47.65625 44.507812 -43.457031 L 47.867188 -52.277344 C 42.09375 -55.320312 34.535156 -57 26.976562 -57 C 22.777344 -57 18.683594 -56.476562 14.90625 -55.320312 C 9.027344 -53.429688 1.46875 -48.601562 1.46875 -41.464844 C 1.46875 -33.695312 7.453125 -30.441406 13.332031 -28.34375 C 21.625 -25.402344 31.910156 -24.667969 38.210938 -21.203125 C 42.722656 -18.582031 44.613281 -14.277344 43.144531 -10.183594 C 40.835938 -3.777344 33.066406 -1.996094 27.1875 -1.890625 C 15.640625 -1.785156 5.355469 -11.546875 2.414062 -22.988281 Z M 2.414062 -22.988281 "/></g></g></g><g fill="#032b22" fill-opacity="1"><g transform="translate(33.167068, 110.243101)"><g><path d="M 40.308594 -71.800781 L 29.707031 -71.800781 L 6.402344 -5.457031 C 5.355469 -2.519531 3.359375 -0.734375 0 -0.839844 L 0 0 C 4.933594 0 12.597656 0 17.742188 0 L 17.742188 -0.839844 C 14.382812 -0.734375 12.386719 -1.574219 11.335938 -4.617188 C 11.128906 -5.355469 10.8125 -6.195312 10.601562 -6.929688 C 9.972656 -8.710938 10.078125 -10.289062 10.601562 -12.070312 L 12.804688 -17.949219 C 15.117188 -24.5625 23.617188 -20.996094 27.710938 -19.523438 C 36.109375 -16.796875 42.09375 -18.371094 45.769531 -26.136719 L 52.90625 -5.878906 C 54.0625 -2.308594 52.382812 -0.734375 48.8125 -0.839844 L 48.8125 0 L 70.015625 0 L 70.015625 -0.839844 C 66.238281 -0.734375 64.453125 -2.625 63.402344 -5.878906 Z M 45.136719 -28.238281 C 41.253906 -24.039062 35.902344 -26.664062 31.070312 -28.238281 C 24.144531 -30.546875 18.894531 -29.8125 15.222656 -25.089844 L 30.757812 -69.070312 Z M 45.136719 -28.238281 "/></g></g></g><g fill="#032b22" fill-opacity="1"><g transform="translate(106.332904, 110.243101)"><g><path d="M 49.652344 -52.277344 C 43.457031 -55.425781 36.949219 -57 30.652344 -57 C 15.117188 -57 1.574219 -44.195312 1.574219 -28.449219 C 1.574219 -19.734375 5.5625 -11.863281 11.757812 -6.71875 C 16.691406 -2.519531 23.09375 0 30.023438 0 C 43.457031 0 54.585938 -9.238281 57.734375 -21.625 L 56.789062 -21.625 C 53.222656 -11.335938 45.242188 -5.25 36.84375 -4.304688 C 23.410156 -2.835938 13.75 -14.066406 10.917969 -26.03125 C 7.976562 -38.523438 12.175781 -50.386719 21.203125 -53.535156 C 30.128906 -56.683594 38.210938 -53.222656 46.082031 -43.878906 Z M 49.652344 -52.277344 "/></g></g></g><g fill="#032b22" fill-opacity="1"><g transform="translate(167.531868, 110.243101)"><g><path d="M 49.652344 -52.277344 C 43.457031 -55.425781 36.949219 -57 30.652344 -57 C 15.117188 -57 1.574219 -44.195312 1.574219 -28.449219 C 1.574219 -19.734375 5.5625 -11.863281 11.757812 -6.71875 C 16.691406 -2.519531 23.09375 0 30.023438 0 C 43.457031 0 54.585938 -9.238281 57.734375 -21.625 L 56.789062 -21.625 C 53.222656 -11.335938 45.242188 -5.25 36.84375 -4.304688 C 23.410156 -2.835938 13.75 -14.066406 10.917969 -26.03125 C 7.976562 -38.523438 12.175781 -50.386719 21.203125 -53.535156 C 30.128906 -56.683594 38.210938 -53.222656 46.082031 -43.878906 Z M 49.652344 -52.277344 "/></g></g></g><g fill="#032b22" fill-opacity="1"><g transform="translate(228.730833, 110.243101)"><g><path d="M 29.917969 -57 C 45.664062 -57 58.46875 -44.195312 58.46875 -28.449219 C 58.46875 -12.703125 45.664062 0 29.917969 0 C 14.171875 0 1.46875 -12.703125 1.46875 -28.449219 C 1.46875 -44.195312 14.171875 -57 29.917969 -57 Z M 21.097656 -53.535156 C 11.128906 -50.070312 7.03125 -36.003906 11.96875 -22.148438 C 16.902344 -8.292969 28.867188 0.105469 38.839844 -3.359375 C 48.707031 -6.929688 52.800781 -20.996094 47.972656 -34.851562 C 43.039062 -48.707031 31.070312 -57.105469 21.097656 -53.535156 Z M 21.097656 -53.535156 "/></g></g></g><g fill="#032b22" fill-opacity="1"><g transform="translate(291.504387, 110.243101)"><g><path d="M 65.503906 -4.304688 L 64.769531 -4.933594 C 62.144531 -2.835938 59.308594 -5.144531 57.945312 -7.136719 C 52.695312 -15.011719 52.171875 -30.230469 48.917969 -41.988281 C 50.492188 -44.089844 52.382812 -46.398438 54.585938 -48.289062 C 60.253906 -53.222656 66.65625 -53.957031 69.808594 -45.871094 C 74.425781 -34.222656 74.109375 -20.363281 78.730469 -8.816406 C 80.722656 -3.882812 83.558594 0 89.960938 0 C 93.003906 0 96.050781 -1.257812 97.519531 -4.304688 L 96.785156 -4.933594 C 94.265625 -2.835938 91.324219 -5.144531 90.066406 -7.136719 C 83.769531 -16.585938 84.1875 -36.742188 78.625 -48.601562 C 75.894531 -54.480469 71.382812 -57 66.550781 -57 C 58.996094 -57 52.800781 -50.597656 48.183594 -44.296875 C 47.65625 -45.871094 47.132812 -47.238281 46.503906 -48.601562 C 43.773438 -54.480469 39.363281 -57 34.429688 -57 C 26.871094 -57 20.785156 -50.597656 16.164062 -44.402344 L 16.164062 -57 C 13.332031 -52.90625 6.195312 -50.070312 0 -50.070312 L 0 -49.128906 C 4.515625 -49.335938 6.71875 -46.292969 6.71875 -35.164062 L 6.71875 -14.800781 C 6.71875 -3.675781 4.515625 -0.734375 0 -0.945312 L 0 0 L 22.882812 0 L 22.882812 -0.945312 C 18.371094 -0.734375 16.164062 -3.675781 16.164062 -14.800781 L 16.164062 -41.042969 C 17.84375 -43.457031 20.050781 -46.1875 22.464844 -48.289062 C 28.238281 -53.222656 34.640625 -53.957031 37.789062 -45.871094 C 42.304688 -34.222656 41.988281 -20.363281 46.710938 -8.816406 C 48.707031 -3.882812 51.542969 0 57.839844 0 C 60.882812 0 63.929688 -1.257812 65.503906 -4.304688 Z M 65.503906 -4.304688 "/></g></g></g><g fill="#032b22" fill-opacity="1"><g transform="translate(391.543184, 110.243101)"><g><path d="M 65.503906 -4.304688 L 64.769531 -4.933594 C 62.144531 -2.835938 59.308594 -5.144531 57.945312 -7.136719 C 52.695312 -15.011719 52.171875 -30.230469 48.917969 -41.988281 C 50.492188 -44.089844 52.382812 -46.398438 54.585938 -48.289062 C 60.253906 -53.222656 66.65625 -53.957031 69.808594 -45.871094 C 74.425781 -34.222656 74.109375 -20.363281 78.730469 -8.816406 C 80.722656 -3.882812 83.558594 0 89.960938 0 C 93.003906 0 96.050781 -1.257812 97.519531 -4.304688 L 96.785156 -4.933594 C 94.265625 -2.835938 91.324219 -5.144531 90.066406 -7.136719 C 83.769531 -16.585938 84.1875 -36.742188 78.625 -48.601562 C 75.894531 -54.480469 71.382812 -57 66.550781 -57 C 58.996094 -57 52.800781 -50.597656 48.183594 -44.296875 C 47.65625 -45.871094 47.132812 -47.238281 46.503906 -48.601562 C 43.773438 -54.480469 39.363281 -57 34.429688 -57 C 26.871094 -57 20.785156 -50.597656 16.164062 -44.402344 L 16.164062 -57 C 13.332031 -52.90625 6.195312 -50.070312 0 -50.070312 L 0 -49.128906 C 4.515625 -49.335938 6.71875 -46.292969 6.71875 -35.164062 L 6.71875 -14.800781 C 6.71875 -3.675781 4.515625 -0.734375 0 -0.945312 L 0 0 L 22.882812 0 L 22.882812 -0.945312 C 18.371094 -0.734375 16.164062 -3.675781 16.164062 -14.800781 L 16.164062 -41.042969 C 17.84375 -43.457031 20.050781 -46.1875 22.464844 -48.289062 C 28.238281 -53.222656 34.640625 -53.957031 37.789062 -45.871094 C 42.304688 -34.222656 41.988281 -20.363281 46.710938 -8.816406 C 48.707031 -3.882812 51.542969 0 57.839844 0 C 60.882812 0 63.929688 -1.257812 65.503906 -4.304688 Z M 65.503906 -4.304688 "/></g></g></g><g fill="#032b22" fill-opacity="1"><g transform="translate(491.582004, 110.243101)"><g><path d="M 29.917969 -57 C 45.664062 -57 58.46875 -44.195312 58.46875 -28.449219 C 58.46875 -12.703125 45.664062 0 29.917969 0 C 14.171875 0 1.46875 -12.703125 1.46875 -28.449219 C 1.46875 -44.195312 14.171875 -57 29.917969 -57 Z M 21.097656 -53.535156 C 11.128906 -50.070312 7.03125 -36.003906 11.96875 -22.148438 C 16.902344 -8.292969 28.867188 0.105469 38.839844 -3.359375 C 48.707031 -6.929688 52.800781 -20.996094 47.972656 -34.851562 C 43.039062 -48.707031 31.070312 -57.105469 21.097656 -53.535156 Z M 21.097656 -53.535156 "/></g></g></g><g fill="#032b22" fill-opacity="1"><g transform="translate(554.355582, 110.243101)"><g><path d="M 47.550781 -14.800781 L 47.550781 -78.730469 C 44.71875 -74.636719 37.582031 -71.800781 31.386719 -71.800781 L 31.386719 -70.855469 C 35.902344 -71.066406 38.105469 -68.128906 38.105469 -57 L 38.105469 -44.71875 C 34.117188 -51.4375 27.816406 -57 19.523438 -57 C 6.402344 -57 0 -44.613281 0 -32.960938 C 0 -14.066406 11.128906 0 30.757812 0 L 54.269531 0 L 54.269531 -0.945312 C 49.757812 -0.734375 47.550781 -3.675781 47.550781 -14.800781 Z M 38.105469 -14.800781 C 38.105469 -5.5625 35.269531 -1.890625 30.128906 -1.890625 C 24.878906 -1.890625 18.476562 -6.613281 14.695312 -13.121094 C 9.65625 -21.9375 6.824219 -37.160156 12.804688 -46.1875 C 18.789062 -55.109375 31.070312 -55.425781 38.105469 -40.519531 Z M 38.105469 -14.800781 "/></g></g></g><g fill="#032b22" fill-opacity="1"><g transform="translate(611.250684, 110.243101)"><g><path d="M 59.730469 -4.304688 L 58.996094 -4.933594 C 56.476562 -2.835938 53.535156 -5.144531 52.277344 -7.136719 C 47.761719 -13.855469 46.710938 -26.03125 44.402344 -36.742188 C 41.570312 -50.597656 37.789062 -57 22.253906 -57 C 14.171875 -57 6.296875 -55.214844 0.105469 -52.277344 L 3.464844 -43.457031 C 5.773438 -46.609375 10.707031 -51.542969 15.640625 -53.746094 C 23.515625 -57.316406 30.546875 -52.695312 26.03125 -43.878906 C 20.890625 -33.484375 0.945312 -30.546875 0 -14.90625 C -0.523438 -5.144531 6.507812 0 15.640625 0 C 30.546875 0 35.902344 -11.757812 36.84375 -24.25 C 37.683594 -19.316406 38.734375 -14.484375 40.203125 -10.390625 C 42.304688 -4.722656 45.347656 0 52.171875 0 C 55.214844 0 58.15625 -1.257812 59.730469 -4.304688 Z M 34.117188 -39.679688 C 35.796875 -32.75 35.480469 -23.09375 33.066406 -16.269531 C 30.757812 -9.65625 24.25 -3.359375 16.480469 -5.25 C 10.496094 -6.71875 8.816406 -12.175781 9.867188 -17.320312 C 12.070312 -27.398438 23.410156 -31.070312 27.921875 -39.15625 C 29.601562 -42.09375 30.546875 -46.292969 29.707031 -49.757812 C 31.808594 -47.027344 33.171875 -43.457031 34.117188 -39.679688 Z M 34.117188 -39.679688 "/></g></g></g><g fill="#032b22" fill-opacity="1"><g transform="translate(673.394408, 110.243101)"><g><path d="M 0 -57 L 0 -55.109375 L 6.71875 -55.109375 L 6.71875 -12.910156 C 6.71875 -6.613281 9.238281 0 16.585938 0 C 22.359375 0 26.136719 -4.515625 29.289062 -8.921875 L 28.550781 -9.550781 C 22.570312 -2.519531 16.164062 -2.414062 16.164062 -12.910156 L 16.164062 -55.109375 L 29.289062 -55.109375 L 29.289062 -57 L 16.164062 -57 L 16.164062 -66.132812 L 15.222656 -66.132812 C 12.386719 -60.675781 5.355469 -57 0 -57 Z M 0 -57 "/></g></g></g><g fill="#032b22" fill-opacity="1"><g transform="translate(705.411005, 110.243101)"><g><path d="M 16.164062 -14.800781 L 16.164062 -57 C 13.332031 -52.90625 6.195312 -50.070312 0 -50.070312 L 0 -49.128906 C 4.515625 -49.335938 6.71875 -46.292969 6.71875 -35.164062 L 6.71875 -14.800781 C 6.71875 -3.675781 4.515625 -0.734375 0 -0.945312 L 0 0 L 22.882812 0 L 22.882812 -0.945312 C 18.371094 -0.734375 16.164062 -3.675781 16.164062 -14.800781 Z M 11.441406 -71.800781 C 7.664062 -71.800781 4.515625 -68.757812 4.515625 -64.976562 C 4.515625 -61.09375 7.664062 -58.050781 11.441406 -58.050781 C 15.222656 -58.050781 18.371094 -61.09375 18.371094 -64.976562 C 18.371094 -68.757812 15.222656 -71.800781 11.441406 -71.800781 Z M 11.441406 -71.800781 "/></g></g></g><g fill="#032b22" fill-opacity="1"><g transform="translate(730.919319, 110.243101)"><g><path d="M 29.917969 -57 C 45.664062 -57 58.46875 -44.195312 58.46875 -28.449219 C 58.46875 -12.703125 45.664062 0 29.917969 0 C 14.171875 0 1.46875 -12.703125 1.46875 -28.449219 C 1.46875 -44.195312 14.171875 -57 29.917969 -57 Z M 21.097656 -53.535156 C 11.128906 -50.070312 7.03125 -36.003906 11.96875 -22.148438 C 16.902344 -8.292969 28.867188 0.105469 38.839844 -3.359375 C 48.707031 -6.929688 52.800781 -20.996094 47.972656 -34.851562 C 43.039062 -48.707031 31.070312 -57.105469 21.097656 -53.535156 Z M 21.097656 -53.535156 "/></g></g></g><g fill="#032b22" fill-opacity="1"><g transform="translate(793.692851, 110.243101)"><g><path d="M 65.503906 -4.304688 L 64.769531 -4.933594 C 62.144531 -2.835938 59.308594 -5.144531 57.945312 -7.136719 C 51.644531 -16.585938 52.066406 -36.742188 46.503906 -48.601562 C 43.773438 -54.480469 39.363281 -57 34.429688 -57 C 26.871094 -57 20.785156 -50.597656 16.164062 -44.402344 L 16.164062 -57 C 13.332031 -52.90625 6.195312 -50.070312 0 -50.070312 L 0 -49.128906 C 4.515625 -49.335938 6.71875 -46.292969 6.71875 -35.164062 L 6.71875 -14.800781 C 6.71875 -3.675781 4.515625 -0.734375 0 -0.945312 L 0 0 L 22.882812 0 L 22.882812 -0.945312 C 18.371094 -0.734375 16.164062 -3.675781 16.164062 -14.800781 L 16.164062 -41.042969 C 17.84375 -43.457031 20.050781 -46.1875 22.464844 -48.289062 C 28.238281 -53.222656 34.640625 -53.957031 37.789062 -45.871094 C 42.304688 -34.222656 41.988281 -20.363281 46.710938 -8.816406 C 48.707031 -3.882812 51.542969 0 57.839844 0 C 60.882812 0 63.929688 -1.257812 65.503906 -4.304688 Z M 65.503906 -4.304688 "/></g></g><g transform="translate(861.924929, 110.243101)"><g><path d="M 2.414062 -22.988281 L 1.46875 -22.988281 L 1.46875 -8.710938 C 8.398438 -2.835938 17.214844 0 26.871094 0 C 34.011719 0 42.199219 -1.890625 46.398438 -7.453125 C 50.597656 -12.910156 50.386719 -22.148438 45.558594 -27.082031 C 38.210938 -34.535156 23.410156 -33.589844 14.066406 -38.316406 C 6.195312 -42.304688 8.921875 -49.230469 14.589844 -52.589844 C 18.265625 -54.902344 24.144531 -55.425781 28.238281 -55.003906 C 37.265625 -54.164062 42.199219 -47.65625 44.507812 -43.457031 L 47.867188 -52.277344 C 42.09375 -55.320312 34.535156 -57 26.976562 -57 C 22.777344 -57 18.683594 -56.476562 14.90625 -55.320312 C 9.027344 -53.429688 1.46875 -48.601562 1.46875 -41.464844 C 1.46875 -33.695312 7.453125 -30.441406 13.332031 -28.34375 C 21.625 -25.402344 31.910156 -24.667969 38.210938 -21.203125 C 42.722656 -18.582031 44.613281 -14.277344 43.144531 -10.183594 C 40.835938 -3.777344 33.066406 -1.996094 27.1875 -1.890625 C 15.640625 -1.785156 5.355469 -11.546875 2.414062 -22.988281 Z M 2.414062 -22.988281 "/></g></g></g></svg>