<svg xmlns="http://www.w3.org/2000/svg" xmlns:xlink="http://www.w3.org/1999/xlink" width="771" zoomAndPan="magnify" viewBox="0 0 578.25 576" height="768" preserveAspectRatio="xMidYMid meet" version="1.0"><defs><clipPath id="f6a2c13e9c"><path d="M 0 0.375 L 577.5 0.375 L 577.5 575.625 L 0 575.625 Z M 0 0.375 " clip-rule="nonzero"/></clipPath></defs><g clip-path="url(#f6a2c13e9c)"><path fill="#efede7" d="M 288.800781 0.574219 C 129.273438 0.574219 0 129.847656 0 289.375 C 0 432.648438 104.519531 551.671875 241.292969 574.175781 L 241.292969 378.390625 L 167.777344 378.390625 L 167.777344 292.625 L 241.292969 292.625 L 241.292969 230.363281 C 241.292969 162.855469 296.050781 117.097656 363.5625 117.097656 C 393.566406 117.097656 412.320312 121.597656 412.320312 121.597656 L 412.320312 193.609375 L 363.5625 193.609375 C 343.308594 193.609375 326.804688 210.113281 326.804688 230.363281 L 326.804688 292.625 L 405.570312 292.625 L 394.566406 378.390625 L 326.804688 378.390625 L 326.804688 575.425781 C 468.082031 556.671875 577.097656 435.648438 577.097656 289.375 C 577.347656 129.847656 448.078125 0.574219 288.800781 0.574219 Z M 288.800781 0.574219 " fill-opacity="1" fill-rule="nonzero"/><path fill="#efede7" d="M 288.800781 0.574219 C 129.273438 0.574219 0 129.847656 0 289.375 C 0 432.648438 104.519531 551.671875 241.292969 574.175781 L 241.292969 378.390625 L 167.777344 378.390625 L 167.777344 292.625 L 241.292969 292.625 L 241.292969 230.363281 C 241.292969 162.855469 296.050781 117.097656 363.5625 117.097656 C 393.566406 117.097656 412.320312 121.597656 412.320312 121.597656 L 412.320312 193.609375 L 363.5625 193.609375 C 343.308594 193.609375 326.804688 210.113281 326.804688 230.363281 L 326.804688 292.625 L 405.570312 292.625 L 394.566406 378.390625 L 326.804688 378.390625 L 326.804688 575.425781 C 468.082031 556.671875 577.097656 435.648438 577.097656 289.375 C 577.347656 129.847656 448.078125 0.574219 288.800781 0.574219 Z M 288.800781 0.574219 " fill-opacity="1" fill-rule="nonzero"/></g></svg>