<svg xmlns="http://www.w3.org/2000/svg" xmlns:xlink="http://www.w3.org/1999/xlink" width="768" zoomAndPan="magnify" viewBox="0 0 576 576" height="768" preserveAspectRatio="xMidYMid meet" version="1.0"><path fill="#efede7" d="M 288 224.167969 C 252.839844 224.167969 224.167969 252.839844 224.167969 288 C 224.167969 323.160156 252.839844 351.832031 288 351.832031 C 323.160156 351.832031 351.832031 323.160156 351.832031 288 C 351.832031 252.839844 323.160156 224.167969 288 224.167969 Z M 288 224.167969 " fill-opacity="1" fill-rule="nonzero"/><path fill="#efede7" d="M 373.777344 131.40625 L 202.222656 131.40625 C 163.324219 131.40625 131.40625 163.074219 131.40625 202.222656 L 131.40625 373.777344 C 131.40625 412.675781 163.074219 444.59375 202.222656 444.59375 L 373.777344 444.59375 C 412.675781 444.59375 444.59375 412.925781 444.59375 373.777344 L 444.59375 202.222656 C 444.34375 163.074219 412.675781 131.40625 373.777344 131.40625 Z M 288 384 C 234.886719 384 191.75 340.863281 191.75 287.75 C 191.75 234.640625 234.886719 191.5 288 191.5 C 341.113281 191.5 384.25 234.640625 384.25 287.75 C 384 340.863281 340.863281 384 288 384 Z M 390.980469 207.710938 C 378.265625 207.710938 367.792969 197.238281 367.792969 184.519531 C 367.792969 171.800781 378.265625 161.328125 390.980469 161.328125 C 403.699219 161.328125 414.171875 171.800781 414.171875 184.519531 C 414.171875 197.484375 403.949219 207.710938 390.980469 207.710938 Z M 390.980469 207.710938 " fill-opacity="1" fill-rule="nonzero"/><path fill="#efede7" d="M 288 0 C 128.914062 0 0 128.914062 0 288 C 0 447.085938 128.914062 576 288 576 C 447.085938 576 576 447.085938 576 288 C 575.75 128.914062 446.835938 0 288 0 Z M 476.757812 373.777344 C 476.757812 430.628906 430.378906 477.007812 373.527344 477.007812 L 202.222656 477.007812 C 145.371094 477.007812 98.992188 430.628906 98.992188 373.777344 L 98.992188 202.222656 C 98.992188 145.371094 145.371094 98.992188 202.222656 98.992188 L 373.777344 98.992188 C 430.628906 98.992188 477.007812 145.371094 477.007812 202.222656 L 477.007812 373.777344 Z M 476.757812 373.777344 " fill-opacity="1" fill-rule="nonzero"/><path fill="#efede7" d="M 288 224.167969 C 252.839844 224.167969 224.167969 252.839844 224.167969 288 C 224.167969 323.160156 252.839844 351.832031 288 351.832031 C 323.160156 351.832031 351.832031 323.160156 351.832031 288 C 351.832031 252.839844 323.160156 224.167969 288 224.167969 Z M 288 224.167969 " fill-opacity="1" fill-rule="nonzero"/><path fill="#efede7" d="M 373.777344 131.40625 L 202.222656 131.40625 C 163.324219 131.40625 131.40625 163.074219 131.40625 202.222656 L 131.40625 373.777344 C 131.40625 412.675781 163.074219 444.59375 202.222656 444.59375 L 373.777344 444.59375 C 412.675781 444.59375 444.59375 412.925781 444.59375 373.777344 L 444.59375 202.222656 C 444.34375 163.074219 412.675781 131.40625 373.777344 131.40625 Z M 288 384 C 234.886719 384 191.75 340.863281 191.75 287.75 C 191.75 234.640625 234.886719 191.5 288 191.5 C 341.113281 191.5 384.25 234.640625 384.25 287.75 C 384 340.863281 340.863281 384 288 384 Z M 390.980469 207.710938 C 378.265625 207.710938 367.792969 197.238281 367.792969 184.519531 C 367.792969 171.800781 378.265625 161.328125 390.980469 161.328125 C 403.699219 161.328125 414.171875 171.800781 414.171875 184.519531 C 414.171875 197.484375 403.949219 207.710938 390.980469 207.710938 Z M 390.980469 207.710938 " fill-opacity="1" fill-rule="nonzero"/><path fill="#efede7" d="M 288 0 C 128.914062 0 0 128.914062 0 288 C 0 447.085938 128.914062 576 288 576 C 447.085938 576 576 447.085938 576 288 C 575.75 128.914062 446.835938 0 288 0 Z M 476.757812 373.777344 C 476.757812 430.628906 430.378906 477.007812 373.527344 477.007812 L 202.222656 477.007812 C 145.371094 477.007812 98.992188 430.628906 98.992188 373.777344 L 98.992188 202.222656 C 98.992188 145.371094 145.371094 98.992188 202.222656 98.992188 L 373.777344 98.992188 C 430.628906 98.992188 477.007812 145.371094 477.007812 202.222656 L 477.007812 373.777344 Z M 476.757812 373.777344 " fill-opacity="1" fill-rule="nonzero"/></svg>