<svg xmlns="http://www.w3.org/2000/svg" xmlns:xlink="http://www.w3.org/1999/xlink" width="1366" zoomAndPan="magnify" viewBox="0 0 1024.5 576" height="768" preserveAspectRatio="xMidYMid meet" version="1.0"><defs><clipPath id="70fb703e8b"><path d="M 172.980469 0.140625 L 850.648438 0.140625 L 850.648438 575.859375 L 172.980469 575.859375 Z M 172.980469 0.140625 " clip-rule="nonzero"/></clipPath><clipPath id="ac4dc5b0f5"><path d="M 851 256.019531 L 851 242.5625 L 837.617188 241.101562 C 834.023438 240.726562 795.449219 236.863281 745.503906 244.359375 L 745.503906 146.171875 L 728.5625 148.339844 C 700.574219 151.972656 674.601562 157.335938 650.613281 164.265625 C 624.53125 108.914062 581.398438 56.636719 521.4375 8.0625 L 511.996094 0.382812 L 502.554688 8.0625 C 442.59375 56.636719 399.460938 108.914062 373.378906 164.265625 C 349.390625 157.335938 323.417969 151.972656 295.425781 148.339844 L 278.488281 146.171875 L 278.488281 244.359375 C 228.527344 236.863281 189.96875 240.726562 186.375 241.101562 L 172.992188 242.5625 L 172.992188 256.019531 C 172.992188 366.460938 202.667969 450.519531 261.253906 505.945312 C 309.714844 551.777344 376.375 575.691406 455.035156 575.691406 C 461.21875 575.691406 467.511719 575.507812 473.878906 575.246094 L 495.429688 575.246094 L 491.152344 556.734375 C 480.507812 510.640625 462.863281 399.257812 511.996094 308.496094 C 561.125 399.257812 543.480469 510.640625 532.835938 556.734375 L 528.5625 575.246094 L 550.109375 575.246094 C 556.480469 575.507812 562.773438 575.691406 568.957031 575.691406 C 647.613281 575.691406 714.289062 551.777344 762.738281 505.945312 C 821.324219 450.519531 851 366.460938 851 256.019531 Z M 715.527344 180.546875 L 715.527344 250.097656 C 703.386719 252.910156 690.871094 256.429688 678.320312 260.886719 C 675.65625 237.542969 670.265625 214.609375 662.160156 192.15625 C 678.875 187.472656 696.632812 183.542969 715.527344 180.546875 Z M 308.460938 180.546875 C 327.347656 183.542969 345.113281 187.484375 361.828125 192.167969 C 353.738281 214.621094 348.335938 237.554688 345.671875 260.902344 C 333.121094 256.441406 320.605469 252.921875 308.460938 250.109375 Z M 281.859375 484.136719 C 231.933594 436.953125 205.519531 364.996094 203.164062 270.144531 C 218.714844 269.660156 246.332031 269.921875 278.488281 275.273438 L 278.488281 364.316406 C 278.488281 432.402344 345.945312 500.46875 412.386719 542.929688 C 368.496094 537.15625 320.867188 521.085938 281.859375 484.136719 Z M 308.460938 364.328125 L 308.460938 281.582031 C 320.085938 284.578125 331.957031 288.285156 343.800781 292.894531 C 343.207031 382.953125 382.101562 459.8125 416.277344 509.761719 C 357.628906 469.179688 308.460938 411.882812 308.460938 364.328125 Z M 452.480469 508.371094 C 420.625 465.464844 377.828125 392.417969 374.046875 306.796875 C 404.8125 323.363281 433.710938 347.265625 455.515625 381.601562 C 447.054688 427.507812 448.320312 472.363281 452.480469 508.371094 Z M 464.996094 343.226562 C 438.949219 310.738281 407.242188 288.285156 374.640625 272.847656 C 376.625 248.558594 381.878906 224.730469 390.414062 201.375 C 436.0625 218.164062 472.144531 242.152344 498.265625 273.253906 C 483.324219 295.519531 472.566406 319.238281 464.996094 343.226562 Z M 511.996094 243.578125 C 483.820312 213.753906 447.09375 190.433594 402.1875 173.753906 C 425.085938 126.53125 461.738281 81.566406 511.996094 39.140625 C 562.253906 81.566406 598.90625 126.535156 621.804688 173.753906 C 576.898438 190.433594 540.171875 213.742188 511.996094 243.578125 Z M 525.710938 273.253906 C 551.832031 242.152344 587.925781 218.164062 633.5625 201.375 C 642.113281 224.71875 647.355469 248.558594 649.335938 272.847656 C 616.734375 288.285156 585.027344 310.738281 558.980469 343.226562 C 551.421875 319.238281 540.667969 295.519531 525.710938 273.253906 Z M 568.472656 381.601562 C 590.28125 347.277344 619.175781 323.363281 649.945312 306.796875 C 646.164062 392.429688 603.367188 465.464844 571.507812 508.371094 C 575.671875 472.363281 576.9375 427.507812 568.472656 381.601562 Z M 680.191406 292.894531 C 692.035156 288.285156 703.90625 284.578125 715.527344 281.582031 L 715.527344 364.328125 C 715.527344 411.882812 666.363281 469.179688 607.714844 509.773438 C 641.890625 459.8125 680.785156 382.953125 680.191406 292.894531 Z M 742.132812 484.136719 C 703.125 521.085938 655.484375 537.167969 611.605469 542.929688 C 678.046875 500.46875 745.503906 432.417969 745.503906 364.316406 L 745.503906 275.273438 C 777.65625 269.921875 805.277344 269.648438 820.828125 270.144531 C 818.472656 364.996094 792.054688 436.953125 742.132812 484.136719 Z M 742.132812 484.136719 " clip-rule="nonzero"/></clipPath></defs><g clip-path="url(#70fb703e8b)"><g clip-path="url(#ac4dc5b0f5)"><path fill="#efede7" d="M 172.992188 0.382812 L 172.992188 575.691406 L 850.648438 575.691406 L 850.648438 0.382812 Z M 172.992188 0.382812 " fill-opacity="1" fill-rule="nonzero"/></g></g></svg>