<svg xmlns="http://www.w3.org/2000/svg" xmlns:xlink="http://www.w3.org/1999/xlink" width="1213" zoomAndPan="magnify" viewBox="0 0 909.75 152.249993" height="203" preserveAspectRatio="xMidYMid meet" version="1.0"><defs><g/><clipPath id="954c533eeb"><path d="M 2.121094 0 L 906.648438 0 L 906.648438 150.757812 L 2.121094 150.757812 Z M 2.121094 0 " clip-rule="nonzero"/></clipPath><clipPath id="789dd296a0"><path d="M 9.582031 0 L 899.464844 0 C 903.585938 0 906.925781 3.339844 906.925781 7.464844 L 906.925781 143.386719 C 906.925781 147.507812 903.585938 150.851562 899.464844 150.851562 L 9.582031 150.851562 C 5.460938 150.851562 2.121094 147.507812 2.121094 143.386719 L 2.121094 7.464844 C 2.121094 3.339844 5.460938 0 9.582031 0 Z M 9.582031 0 " clip-rule="nonzero"/></clipPath><clipPath id="c4acc39fa0"><path d="M 2.121094 0 L 906.648438 0 L 906.648438 150.757812 L 2.121094 150.757812 Z M 2.121094 0 " clip-rule="nonzero"/></clipPath><clipPath id="52ff31903c"><path d="M 9.582031 0 L 899.464844 0 C 903.585938 0 906.925781 3.339844 906.925781 7.464844 L 906.925781 143.386719 C 906.925781 147.507812 903.585938 150.851562 899.464844 150.851562 L 9.582031 150.851562 C 5.460938 150.851562 2.121094 147.507812 2.121094 143.386719 L 2.121094 7.464844 C 2.121094 3.339844 5.460938 0 9.582031 0 Z M 9.582031 0 " clip-rule="nonzero"/></clipPath></defs><g clip-path="url(#954c533eeb)"><g clip-path="url(#789dd296a0)"><path stroke-linecap="butt" transform="matrix(0.746323, 0, 0, 0.746323, 2.120514, -0.0000019902)" fill="none" stroke-linejoin="miter" d="M 9.997699 0.00000266667 L 1202.353096 0.00000266667 C 1207.874956 0.00000266667 1212.350018 4.475065 1212.350018 10.002159 L 1212.350018 192.124095 C 1212.350018 197.645955 1207.874956 202.126251 1202.353096 202.126251 L 9.997699 202.126251 C 4.475839 202.126251 0.000777031 197.645955 0.000777031 192.124095 L 0.000777031 10.002159 C 0.000777031 4.475065 4.475839 0.00000266667 9.997699 0.00000266667 Z M 9.997699 0.00000266667 " stroke="#efede7" stroke-width="2" stroke-opacity="1" stroke-miterlimit="4"/></g></g><g fill="#efede7" fill-opacity="1"><g transform="translate(59.175834, 118.665429)"><g><path d="M 17.414062 -59.703125 L 12.238281 -59.703125 L 12.238281 0 L 67.167969 0 L 67.167969 -4.578125 L 17.414062 -4.578125 Z M 17.414062 -59.703125 "/></g></g></g><g fill="#efede7" fill-opacity="1"><g transform="translate(130.322601, 118.665429)"><g><path d="M 70.253906 -55.128906 L 70.253906 -59.703125 L 12.339844 -59.703125 L 12.339844 0 L 70.253906 0 L 70.253906 -4.578125 L 17.511719 -4.578125 L 17.511719 -26.765625 L 66.570312 -26.765625 L 66.570312 -31.34375 L 17.511719 -31.34375 L 17.511719 -55.128906 Z M 70.253906 -55.128906 "/></g></g></g><g fill="#efede7" fill-opacity="1"><g transform="translate(206.643673, 118.665429)"><g><path d="M 66.371094 0 L 72.242188 0 L 39.40625 -59.703125 L 33.335938 -59.703125 L 0.496094 0 L 6.367188 0 L 12.835938 -11.742188 L 59.902344 -11.742188 Z M 15.523438 -16.71875 L 36.417969 -54.53125 L 57.214844 -16.71875 Z M 15.523438 -16.71875 "/></g></g></g><g fill="#efede7" fill-opacity="1"><g transform="translate(279.382527, 118.665429)"><g><path d="M 72.539062 -5.96875 L 72.539062 -15.523438 C 72.539062 -21.691406 70.054688 -25.871094 64.382812 -28.160156 C 70.054688 -30.648438 72.539062 -35.125 72.539062 -41.992188 L 72.539062 -44.378906 C 72.539062 -54.132812 66.171875 -59.703125 50.949219 -59.703125 L 12.339844 -59.703125 L 12.339844 0 L 17.710938 0 L 17.710938 -25.574219 L 50.949219 -25.574219 C 62.691406 -25.574219 66.96875 -22.589844 66.96875 -15.523438 L 66.96875 -5.574219 C 66.96875 -3.78125 67.066406 -1.792969 67.367188 0 L 73.039062 0 C 72.738281 -1.792969 72.539062 -3.78125 72.539062 -5.96875 Z M 17.710938 -30.746094 L 17.710938 -54.730469 L 50.949219 -54.730469 C 62.691406 -54.730469 67.167969 -51.445312 67.167969 -44.378906 L 67.167969 -41.992188 C 67.167969 -33.832031 62.691406 -30.746094 50.949219 -30.746094 Z M 17.710938 -30.746094 "/></g></g></g><g fill="#efede7" fill-opacity="1"><g transform="translate(361.375434, 118.665429)"><g><path d="M 71.945312 -59.703125 L 71.945312 -5.375 L 19.304688 -59.703125 L 12.339844 -59.703125 L 12.339844 0 L 17.511719 0 L 17.511719 -54.332031 L 70.152344 0 L 77.117188 0 L 77.117188 -59.703125 Z M 71.945312 -59.703125 "/></g></g></g><g fill="#efede7" fill-opacity="1"><g transform="translate(450.831303, 118.665429)"><g/></g></g><g fill="#efede7" fill-opacity="1"><g transform="translate(490.633703, 118.665429)"><g><path d="M 96.820312 -59.703125 L 90.152344 -59.703125 L 54.628906 -4.675781 L 19.007812 -59.703125 L 12.339844 -59.703125 L 12.339844 0 L 17.511719 0 L 17.511719 -52.738281 L 51.644531 -0.0976562 L 51.542969 0 L 57.613281 0 L 57.613281 -0.0976562 L 91.644531 -52.738281 L 91.644531 0 L 96.820312 0 Z M 96.820312 -59.703125 "/></g></g></g><g fill="#efede7" fill-opacity="1"><g transform="translate(599.791755, 118.665429)"><g><path d="M 45.871094 0.996094 C 72.144531 0.996094 83.785156 -10.148438 83.785156 -28.0625 L 83.785156 -32.4375 C 83.785156 -50.351562 72.144531 -60.699219 45.871094 -60.699219 C 19.601562 -60.699219 7.960938 -49.953125 7.960938 -32.042969 L 7.960938 -27.664062 C 7.960938 -9.75 19.601562 0.996094 45.871094 0.996094 Z M 45.871094 -3.980469 C 23.484375 -3.980469 13.332031 -12.140625 13.332031 -27.664062 L 13.332031 -32.042969 C 13.332031 -47.566406 23.484375 -55.722656 45.871094 -55.722656 C 68.261719 -55.722656 78.410156 -47.566406 78.410156 -32.042969 L 78.410156 -27.664062 C 78.410156 -12.140625 68.261719 -3.980469 45.871094 -3.980469 Z M 45.871094 -3.980469 "/></g></g></g><g fill="#efede7" fill-opacity="1"><g transform="translate(691.536245, 118.665429)"><g><path d="M 72.539062 -5.96875 L 72.539062 -15.523438 C 72.539062 -21.691406 70.054688 -25.871094 64.382812 -28.160156 C 70.054688 -30.648438 72.539062 -35.125 72.539062 -41.992188 L 72.539062 -44.378906 C 72.539062 -54.132812 66.171875 -59.703125 50.949219 -59.703125 L 12.339844 -59.703125 L 12.339844 0 L 17.710938 0 L 17.710938 -25.574219 L 50.949219 -25.574219 C 62.691406 -25.574219 66.96875 -22.589844 66.96875 -15.523438 L 66.96875 -5.574219 C 66.96875 -3.78125 67.066406 -1.792969 67.367188 0 L 73.039062 0 C 72.738281 -1.792969 72.539062 -3.78125 72.539062 -5.96875 Z M 17.710938 -30.746094 L 17.710938 -54.730469 L 50.949219 -54.730469 C 62.691406 -54.730469 67.167969 -51.445312 67.167969 -44.378906 L 67.167969 -41.992188 C 67.167969 -33.832031 62.691406 -30.746094 50.949219 -30.746094 Z M 17.710938 -30.746094 "/></g></g></g><g fill="#efede7" fill-opacity="1"><g transform="translate(773.529152, 118.665429)"><g><path d="M 70.253906 -55.128906 L 70.253906 -59.703125 L 12.339844 -59.703125 L 12.339844 0 L 70.253906 0 L 70.253906 -4.578125 L 17.511719 -4.578125 L 17.511719 -26.765625 L 66.570312 -26.765625 L 66.570312 -31.34375 L 17.511719 -31.34375 L 17.511719 -55.128906 Z M 70.253906 -55.128906 "/></g></g></g><g clip-path="url(#c4acc39fa0)"><g clip-path="url(#52ff31903c)"><path stroke-linecap="butt" transform="matrix(0.746323, 0, 0, 0.746323, 2.120514, -0.0000019902)" fill="none" stroke-linejoin="miter" d="M 9.997699 0.00000266667 L 1202.353096 0.00000266667 C 1207.874956 0.00000266667 1212.350018 4.475065 1212.350018 10.002159 L 1212.350018 192.124095 C 1212.350018 197.645955 1207.874956 202.126251 1202.353096 202.126251 L 9.997699 202.126251 C 4.475839 202.126251 0.000777031 197.645955 0.000777031 192.124095 L 0.000777031 10.002159 C 0.000777031 4.475065 4.475839 0.00000266667 9.997699 0.00000266667 Z M 9.997699 0.00000266667 " stroke="#efede7" stroke-width="2" stroke-opacity="1" stroke-miterlimit="4"/></g></g><g fill="#efede7" fill-opacity="1"><g transform="translate(59.175834, 118.665429)"><g><path d="M 17.414062 -59.703125 L 12.238281 -59.703125 L 12.238281 0 L 67.167969 0 L 67.167969 -4.578125 L 17.414062 -4.578125 Z M 17.414062 -59.703125 "/></g></g></g><g fill="#efede7" fill-opacity="1"><g transform="translate(130.322601, 118.665429)"><g><path d="M 70.253906 -55.128906 L 70.253906 -59.703125 L 12.339844 -59.703125 L 12.339844 0 L 70.253906 0 L 70.253906 -4.578125 L 17.511719 -4.578125 L 17.511719 -26.765625 L 66.570312 -26.765625 L 66.570312 -31.34375 L 17.511719 -31.34375 L 17.511719 -55.128906 Z M 70.253906 -55.128906 "/></g></g></g><g fill="#efede7" fill-opacity="1"><g transform="translate(206.643673, 118.665429)"><g><path d="M 66.371094 0 L 72.242188 0 L 39.40625 -59.703125 L 33.335938 -59.703125 L 0.496094 0 L 6.367188 0 L 12.835938 -11.742188 L 59.902344 -11.742188 Z M 15.523438 -16.71875 L 36.417969 -54.53125 L 57.214844 -16.71875 Z M 15.523438 -16.71875 "/></g></g></g><g fill="#efede7" fill-opacity="1"><g transform="translate(279.382527, 118.665429)"><g><path d="M 72.539062 -5.96875 L 72.539062 -15.523438 C 72.539062 -21.691406 70.054688 -25.871094 64.382812 -28.160156 C 70.054688 -30.648438 72.539062 -35.125 72.539062 -41.992188 L 72.539062 -44.378906 C 72.539062 -54.132812 66.171875 -59.703125 50.949219 -59.703125 L 12.339844 -59.703125 L 12.339844 0 L 17.710938 0 L 17.710938 -25.574219 L 50.949219 -25.574219 C 62.691406 -25.574219 66.96875 -22.589844 66.96875 -15.523438 L 66.96875 -5.574219 C 66.96875 -3.78125 67.066406 -1.792969 67.367188 0 L 73.039062 0 C 72.738281 -1.792969 72.539062 -3.78125 72.539062 -5.96875 Z M 17.710938 -30.746094 L 17.710938 -54.730469 L 50.949219 -54.730469 C 62.691406 -54.730469 67.167969 -51.445312 67.167969 -44.378906 L 67.167969 -41.992188 C 67.167969 -33.832031 62.691406 -30.746094 50.949219 -30.746094 Z M 17.710938 -30.746094 "/></g></g></g><g fill="#efede7" fill-opacity="1"><g transform="translate(361.375434, 118.665429)"><g><path d="M 71.945312 -59.703125 L 71.945312 -5.375 L 19.304688 -59.703125 L 12.339844 -59.703125 L 12.339844 0 L 17.511719 0 L 17.511719 -54.332031 L 70.152344 0 L 77.117188 0 L 77.117188 -59.703125 Z M 71.945312 -59.703125 "/></g></g></g><g fill="#efede7" fill-opacity="1"><g transform="translate(450.831303, 118.665429)"><g/></g></g><g fill="#efede7" fill-opacity="1"><g transform="translate(490.633703, 118.665429)"><g><path d="M 96.820312 -59.703125 L 90.152344 -59.703125 L 54.628906 -4.675781 L 19.007812 -59.703125 L 12.339844 -59.703125 L 12.339844 0 L 17.511719 0 L 17.511719 -52.738281 L 51.644531 -0.0976562 L 51.542969 0 L 57.613281 0 L 57.613281 -0.0976562 L 91.644531 -52.738281 L 91.644531 0 L 96.820312 0 Z M 96.820312 -59.703125 "/></g></g></g><g fill="#efede7" fill-opacity="1"><g transform="translate(599.791755, 118.665429)"><g><path d="M 45.871094 0.996094 C 72.144531 0.996094 83.785156 -10.148438 83.785156 -28.0625 L 83.785156 -32.4375 C 83.785156 -50.351562 72.144531 -60.699219 45.871094 -60.699219 C 19.601562 -60.699219 7.960938 -49.953125 7.960938 -32.042969 L 7.960938 -27.664062 C 7.960938 -9.75 19.601562 0.996094 45.871094 0.996094 Z M 45.871094 -3.980469 C 23.484375 -3.980469 13.332031 -12.140625 13.332031 -27.664062 L 13.332031 -32.042969 C 13.332031 -47.566406 23.484375 -55.722656 45.871094 -55.722656 C 68.261719 -55.722656 78.410156 -47.566406 78.410156 -32.042969 L 78.410156 -27.664062 C 78.410156 -12.140625 68.261719 -3.980469 45.871094 -3.980469 Z M 45.871094 -3.980469 "/></g></g></g><g fill="#efede7" fill-opacity="1"><g transform="translate(691.536245, 118.665429)"><g><path d="M 72.539062 -5.96875 L 72.539062 -15.523438 C 72.539062 -21.691406 70.054688 -25.871094 64.382812 -28.160156 C 70.054688 -30.648438 72.539062 -35.125 72.539062 -41.992188 L 72.539062 -44.378906 C 72.539062 -54.132812 66.171875 -59.703125 50.949219 -59.703125 L 12.339844 -59.703125 L 12.339844 0 L 17.710938 0 L 17.710938 -25.574219 L 50.949219 -25.574219 C 62.691406 -25.574219 66.96875 -22.589844 66.96875 -15.523438 L 66.96875 -5.574219 C 66.96875 -3.78125 67.066406 -1.792969 67.367188 0 L 73.039062 0 C 72.738281 -1.792969 72.539062 -3.78125 72.539062 -5.96875 Z M 17.710938 -30.746094 L 17.710938 -54.730469 L 50.949219 -54.730469 C 62.691406 -54.730469 67.167969 -51.445312 67.167969 -44.378906 L 67.167969 -41.992188 C 67.167969 -33.832031 62.691406 -30.746094 50.949219 -30.746094 Z M 17.710938 -30.746094 "/></g></g></g><g fill="#efede7" fill-opacity="1"><g transform="translate(773.529152, 118.665429)"><g><path d="M 70.253906 -55.128906 L 70.253906 -59.703125 L 12.339844 -59.703125 L 12.339844 0 L 70.253906 0 L 70.253906 -4.578125 L 17.511719 -4.578125 L 17.511719 -26.765625 L 66.570312 -26.765625 L 66.570312 -31.34375 L 17.511719 -31.34375 L 17.511719 -55.128906 Z M 70.253906 -55.128906 "/></g></g></g></svg>