<svg xmlns="http://www.w3.org/2000/svg" xmlns:xlink="http://www.w3.org/1999/xlink" width="1266" zoomAndPan="magnify" viewBox="0 0 949.5 158.249993" height="211" preserveAspectRatio="xMidYMid meet" version="1.0"><defs><g/></defs><g fill="#40ffb5" fill-opacity="1"><g transform="translate(27.424849, 103.079226)"><g><path d="M 15.609375 -13.84375 L 15.609375 -23.660156 C 20.417969 -29.351562 26.898438 -32.003906 33.28125 -34.554688 C 42.605469 -38.285156 54.191406 -42.902344 54.191406 -54.582031 C 54.191406 -64.203125 44.570312 -67.148438 36.617188 -67.148438 L 0 -67.148438 L 0 -66.265625 C 4.222656 -66.460938 6.28125 -63.613281 6.28125 -53.207031 L 6.28125 -13.84375 C 6.28125 -3.4375 4.222656 -0.6875 0 -0.882812 L 0 0 L 21.890625 0 L 21.890625 -0.882812 C 17.671875 -0.6875 15.609375 -3.4375 15.609375 -13.84375 Z M 15.609375 -65.382812 L 29.253906 -65.382812 C 36.125 -65.382812 44.765625 -63.320312 44.765625 -54.976562 C 44.765625 -48.203125 40.152344 -43.6875 35.046875 -39.957031 C 28.664062 -35.339844 20.714844 -31.414062 15.609375 -26.308594 Z M 15.609375 -65.382812 "/></g></g></g><g fill="#40ffb5" fill-opacity="1"><g transform="translate(84.658263, 103.079226)"><g><path d="M 15.117188 -13.84375 L 15.117188 -38.382812 C 16.886719 -41.230469 19.632812 -44.960938 22.777344 -47.515625 C 30.039062 -53.601562 36.519531 -46.730469 40.542969 -40.644531 L 43.6875 -48.890625 C 40.644531 -51.441406 36.714844 -53.308594 32.691406 -53.308594 C 25.230469 -53.308594 19.242188 -47.515625 15.117188 -41.625 L 15.117188 -53.308594 C 12.46875 -49.476562 5.792969 -46.828125 0 -46.828125 L 0 -45.945312 C 4.222656 -46.140625 6.28125 -43.292969 6.28125 -32.886719 L 6.28125 -13.84375 C 6.28125 -3.4375 4.222656 -0.6875 0 -0.882812 L 0 0 L 21.402344 0 L 21.402344 -0.882812 C 17.179688 -0.6875 15.117188 -3.4375 15.117188 -13.84375 Z M 15.117188 -13.84375 "/></g></g></g><g fill="#40ffb5" fill-opacity="1"><g transform="translate(134.136217, 103.079226)"><g><path d="M 27.980469 -53.308594 C 42.703125 -53.308594 54.679688 -41.328125 54.679688 -26.605469 C 54.679688 -11.878906 42.703125 0 27.980469 0 C 13.253906 0 1.375 -11.878906 1.375 -26.605469 C 1.375 -41.328125 13.253906 -53.308594 27.980469 -53.308594 Z M 19.730469 -50.066406 C 10.40625 -46.828125 6.578125 -33.671875 11.191406 -20.714844 C 15.804688 -7.753906 26.996094 0.0976562 36.324219 -3.140625 C 45.550781 -6.480469 49.378906 -19.632812 44.863281 -32.59375 C 40.25 -45.550781 29.058594 -53.40625 19.730469 -50.066406 Z M 19.730469 -50.066406 "/></g></g></g><g fill="#40ffb5" fill-opacity="1"><g transform="translate(192.842202, 103.079226)"><g><path d="M 61.257812 -4.023438 L 60.570312 -4.613281 C 58.117188 -2.652344 55.464844 -4.808594 54.191406 -6.675781 C 49.28125 -14.039062 48.789062 -28.273438 45.746094 -39.269531 C 47.21875 -41.230469 48.988281 -43.390625 51.046875 -45.160156 C 56.351562 -49.773438 62.339844 -50.460938 65.285156 -42.902344 C 69.601562 -32.003906 69.308594 -19.046875 73.628906 -8.246094 C 75.492188 -3.632812 78.144531 0 84.132812 0 C 86.980469 0 89.828125 -1.179688 91.199219 -4.023438 L 90.511719 -4.613281 C 88.15625 -2.652344 85.410156 -4.808594 84.230469 -6.675781 C 78.339844 -15.511719 78.734375 -34.359375 73.53125 -45.453125 C 70.976562 -50.949219 66.757812 -53.308594 62.238281 -53.308594 C 55.171875 -53.308594 49.378906 -47.316406 45.058594 -41.429688 C 44.570312 -42.902344 44.078125 -44.175781 43.488281 -45.453125 C 40.9375 -50.949219 36.8125 -53.308594 32.199219 -53.308594 C 25.132812 -53.308594 19.4375 -47.316406 15.117188 -41.527344 L 15.117188 -53.308594 C 12.46875 -49.476562 5.792969 -46.828125 0 -46.828125 L 0 -45.945312 C 4.222656 -46.140625 6.28125 -43.292969 6.28125 -32.886719 L 6.28125 -13.84375 C 6.28125 -3.4375 4.222656 -0.6875 0 -0.882812 L 0 0 L 21.402344 0 L 21.402344 -0.882812 C 17.179688 -0.6875 15.117188 -3.4375 15.117188 -13.84375 L 15.117188 -38.382812 C 16.6875 -40.644531 18.75 -43.195312 21.007812 -45.160156 C 26.40625 -49.773438 32.394531 -50.460938 35.339844 -42.902344 C 39.5625 -32.003906 39.269531 -19.046875 43.6875 -8.246094 C 45.550781 -3.632812 48.203125 0 54.09375 0 C 56.9375 0 59.785156 -1.179688 61.257812 -4.023438 Z M 61.257812 -4.023438 "/></g></g></g><g fill="#40ffb5" fill-opacity="1"><g transform="translate(286.398716, 103.079226)"><g><path d="M 27.980469 -53.308594 C 42.703125 -53.308594 54.679688 -41.328125 54.679688 -26.605469 C 54.679688 -11.878906 42.703125 0 27.980469 0 C 13.253906 0 1.375 -11.878906 1.375 -26.605469 C 1.375 -41.328125 13.253906 -53.308594 27.980469 -53.308594 Z M 19.730469 -50.066406 C 10.40625 -46.828125 6.578125 -33.671875 11.191406 -20.714844 C 15.804688 -7.753906 26.996094 0.0976562 36.324219 -3.140625 C 45.550781 -6.480469 49.378906 -19.632812 44.863281 -32.59375 C 40.25 -45.550781 29.058594 -53.40625 19.730469 -50.066406 Z M 19.730469 -50.066406 "/></g></g></g><g fill="#40ffb5" fill-opacity="1"><g transform="translate(345.104701, 103.079226)"><g><path d="M 2.257812 -21.5 L 1.375 -21.5 L 1.375 -8.148438 C 7.855469 -2.652344 16.101562 0 25.132812 0 C 31.808594 0 39.464844 -1.765625 43.390625 -6.96875 C 47.316406 -12.074219 47.121094 -20.714844 42.605469 -25.328125 C 35.734375 -32.296875 21.890625 -31.414062 13.15625 -35.832031 C 5.792969 -39.5625 8.34375 -46.042969 13.644531 -49.183594 C 17.082031 -51.34375 22.578125 -51.835938 26.40625 -51.441406 C 34.851562 -50.65625 39.464844 -44.570312 41.625 -40.644531 L 44.765625 -48.890625 C 39.367188 -51.734375 32.296875 -53.308594 25.230469 -53.308594 C 21.304688 -53.308594 17.472656 -52.816406 13.941406 -51.734375 C 8.441406 -49.96875 1.375 -45.453125 1.375 -38.777344 C 1.375 -31.511719 6.96875 -28.46875 12.46875 -26.507812 C 20.222656 -23.757812 29.84375 -23.070312 35.734375 -19.832031 C 39.957031 -17.375 41.722656 -13.351562 40.347656 -9.523438 C 38.1875 -3.535156 30.921875 -1.867188 25.425781 -1.765625 C 14.628906 -1.667969 5.007812 -10.796875 2.257812 -21.5 Z M 2.257812 -21.5 "/></g></g></g><g fill="#40ffb5" fill-opacity="1"><g transform="translate(397.429585, 103.079226)"><g/></g></g><g fill="#40ffb5" fill-opacity="1"><g transform="translate(426.193574, 103.079226)"><g><path d="M 55.859375 -4.023438 L 55.171875 -4.613281 C 52.816406 -2.652344 50.066406 -4.808594 48.890625 -6.675781 C 44.667969 -12.957031 43.6875 -24.347656 41.527344 -34.359375 C 38.875 -47.316406 35.339844 -53.308594 20.8125 -53.308594 C 13.253906 -53.308594 5.890625 -51.636719 0.0976562 -48.890625 L 3.238281 -40.644531 C 5.398438 -43.585938 10.011719 -48.203125 14.628906 -50.261719 C 21.992188 -53.601562 28.566406 -49.28125 24.347656 -41.035156 C 19.535156 -31.316406 0.882812 -28.566406 0 -13.941406 C -0.492188 -4.808594 6.085938 0 14.628906 0 C 28.566406 0 33.574219 -10.996094 34.457031 -22.675781 C 35.242188 -18.0625 36.226562 -13.546875 37.597656 -9.71875 C 39.5625 -4.417969 42.410156 0 48.789062 0 C 51.636719 0 54.386719 -1.179688 55.859375 -4.023438 Z M 31.90625 -37.109375 C 33.476562 -30.628906 33.183594 -21.597656 30.921875 -15.214844 C 28.765625 -9.03125 22.675781 -3.140625 15.414062 -4.910156 C 9.816406 -6.28125 8.246094 -11.386719 9.226562 -16.199219 C 11.289062 -25.621094 21.890625 -29.058594 26.113281 -36.617188 C 27.683594 -39.367188 28.566406 -43.292969 27.78125 -46.53125 C 29.746094 -43.980469 31.023438 -40.644531 31.90625 -37.109375 Z M 31.90625 -37.109375 "/></g></g></g><g fill="#40ffb5" fill-opacity="1"><g transform="translate(484.31053, 103.079226)"><g><path d="M 61.257812 -4.023438 L 60.570312 -4.613281 C 58.117188 -2.652344 55.464844 -4.808594 54.191406 -6.675781 C 48.300781 -15.511719 48.691406 -34.359375 43.488281 -45.453125 C 40.9375 -50.949219 36.8125 -53.308594 32.199219 -53.308594 C 25.132812 -53.308594 19.4375 -47.316406 15.117188 -41.527344 L 15.117188 -53.308594 C 12.46875 -49.476562 5.792969 -46.828125 0 -46.828125 L 0 -45.945312 C 4.222656 -46.140625 6.28125 -43.292969 6.28125 -32.886719 L 6.28125 -13.84375 C 6.28125 -3.4375 4.222656 -0.6875 0 -0.882812 L 0 0 L 21.402344 0 L 21.402344 -0.882812 C 17.179688 -0.6875 15.117188 -3.4375 15.117188 -13.84375 L 15.117188 -38.382812 C 16.6875 -40.644531 18.75 -43.195312 21.007812 -45.160156 C 26.40625 -49.773438 32.394531 -50.460938 35.339844 -42.902344 C 39.5625 -32.003906 39.269531 -19.046875 43.6875 -8.246094 C 45.550781 -3.632812 48.203125 0 54.09375 0 C 56.9375 0 59.785156 -1.179688 61.257812 -4.023438 Z M 61.257812 -4.023438 "/></g></g></g><g fill="#40ffb5" fill-opacity="1"><g transform="translate(548.12135, 103.079226)"><g><path d="M 44.472656 -13.84375 L 44.472656 -73.628906 C 41.820312 -69.800781 35.144531 -67.148438 29.351562 -67.148438 L 29.351562 -66.265625 C 33.574219 -66.460938 35.636719 -63.710938 35.636719 -53.308594 L 35.636719 -41.820312 C 31.90625 -48.105469 26.015625 -53.308594 18.257812 -53.308594 C 5.988281 -53.308594 0 -41.722656 0 -30.824219 C 0 -13.15625 10.40625 0 28.765625 0 L 50.753906 0 L 50.753906 -0.882812 C 46.53125 -0.6875 44.472656 -3.4375 44.472656 -13.84375 Z M 35.636719 -13.84375 C 35.636719 -5.203125 32.984375 -1.765625 28.175781 -1.765625 C 23.265625 -1.765625 17.277344 -6.183594 13.742188 -12.269531 C 9.03125 -20.519531 6.382812 -34.753906 11.976562 -43.195312 C 17.574219 -51.539062 29.058594 -51.835938 35.636719 -37.894531 Z M 35.636719 -13.84375 "/></g></g></g><g fill="#40ffb5" fill-opacity="1"><g transform="translate(601.329754, 103.079226)"><g/></g></g><g fill="#40ffb5" fill-opacity="1"><g transform="translate(630.093695, 103.079226)"><g><path d="M 33.574219 -67.148438 C 52.128906 -67.148438 67.148438 -52.128906 67.148438 -33.574219 C 67.148438 -15.019531 52.128906 0 33.574219 0 C 15.019531 0 0 -15.019531 0 -33.574219 C 0 -52.128906 15.019531 -67.148438 33.574219 -67.148438 Z M 22.777344 -63.417969 C 10.210938 -58.902344 4.910156 -41.917969 10.898438 -25.328125 C 16.886719 -8.835938 31.808594 0.882812 44.375 -3.632812 C 56.839844 -8.148438 62.238281 -25.230469 56.25 -41.722656 C 50.261719 -58.214844 35.242188 -67.933594 22.777344 -63.417969 Z M 22.777344 -63.417969 "/></g></g></g><g fill="#40ffb5" fill-opacity="1"><g transform="translate(700.285614, 103.079226)"><g><path d="M 34.652344 -69.898438 C 31.710938 -71.664062 27.683594 -73.628906 21.890625 -73.628906 C 12.171875 -73.628906 6.28125 -66.855469 6.28125 -56.25 L 6.28125 -53.308594 L 0 -53.308594 L 0 -51.539062 L 6.28125 -51.539062 L 6.28125 -13.84375 C 6.28125 -3.4375 4.222656 -0.6875 0 -0.882812 L 0 0 L 21.402344 0 L 21.402344 -0.882812 C 17.179688 -0.6875 15.117188 -3.4375 15.117188 -13.84375 L 15.117188 -51.539062 L 27.390625 -51.539062 L 27.390625 -53.308594 L 15.117188 -53.308594 L 15.117188 -61.945312 C 15.117188 -65.183594 15.609375 -71.664062 20.027344 -71.859375 C 24.542969 -71.960938 29.648438 -64.597656 31.511719 -61.652344 Z M 34.652344 -69.898438 "/></g></g></g><g fill="#40ffb5" fill-opacity="1"><g transform="translate(731.012968, 103.079226)"><g><path d="M 34.652344 -69.898438 C 31.710938 -71.664062 27.683594 -73.628906 21.890625 -73.628906 C 12.171875 -73.628906 6.28125 -66.855469 6.28125 -56.25 L 6.28125 -53.308594 L 0 -53.308594 L 0 -51.539062 L 6.28125 -51.539062 L 6.28125 -13.84375 C 6.28125 -3.4375 4.222656 -0.6875 0 -0.882812 L 0 0 L 21.402344 0 L 21.402344 -0.882812 C 17.179688 -0.6875 15.117188 -3.4375 15.117188 -13.84375 L 15.117188 -51.539062 L 27.390625 -51.539062 L 27.390625 -53.308594 L 15.117188 -53.308594 L 15.117188 -61.945312 C 15.117188 -65.183594 15.609375 -71.664062 20.027344 -71.859375 C 24.542969 -71.960938 29.648438 -64.597656 31.511719 -61.652344 Z M 34.652344 -69.898438 "/></g></g></g><g fill="#40ffb5" fill-opacity="1"><g transform="translate(761.740367, 103.079226)"><g><path d="M 27.980469 -53.308594 C 13.351562 -53.308594 1.375 -41.328125 1.375 -26.605469 C 1.375 -11.878906 13.351562 0 27.980469 0 C 40.542969 0 50.949219 -8.640625 53.894531 -20.222656 L 53.011719 -20.222656 C 49.675781 -10.601562 42.214844 -4.910156 34.359375 -4.023438 C 21.792969 -2.652344 12.761719 -13.15625 10.113281 -24.347656 C 9.523438 -26.800781 9.328125 -29.15625 9.226562 -31.511719 C 22.578125 -31.511719 36.324219 -31.511719 49.675781 -31.511719 C 49.773438 -42.015625 41.625 -53.308594 27.980469 -53.308594 Z M 40.839844 -33.28125 L 9.328125 -33.28125 C 9.71875 -41.230469 13.546875 -47.90625 19.730469 -50.066406 C 28.566406 -53.207031 39.464844 -46.632812 40.839844 -33.28125 Z M 40.839844 -33.28125 "/></g></g></g><g fill="#40ffb5" fill-opacity="1"><g transform="translate(818.973805, 103.079226)"><g><path d="M 15.117188 -13.84375 L 15.117188 -38.382812 C 16.886719 -41.230469 19.632812 -44.960938 22.777344 -47.515625 C 30.039062 -53.601562 36.519531 -46.730469 40.542969 -40.644531 L 43.6875 -48.890625 C 40.644531 -51.441406 36.714844 -53.308594 32.691406 -53.308594 C 25.230469 -53.308594 19.242188 -47.515625 15.117188 -41.625 L 15.117188 -53.308594 C 12.46875 -49.476562 5.792969 -46.828125 0 -46.828125 L 0 -45.945312 C 4.222656 -46.140625 6.28125 -43.292969 6.28125 -32.886719 L 6.28125 -13.84375 C 6.28125 -3.4375 4.222656 -0.6875 0 -0.882812 L 0 0 L 21.402344 0 L 21.402344 -0.882812 C 17.179688 -0.6875 15.117188 -3.4375 15.117188 -13.84375 Z M 15.117188 -13.84375 "/></g></g></g><g fill="#40ffb5" fill-opacity="1"><g transform="translate(868.451805, 103.079226)"><g><path d="M 2.257812 -21.5 L 1.375 -21.5 L 1.375 -8.148438 C 7.855469 -2.652344 16.101562 0 25.132812 0 C 31.808594 0 39.464844 -1.765625 43.390625 -6.96875 C 47.316406 -12.074219 47.121094 -20.714844 42.605469 -25.328125 C 35.734375 -32.296875 21.890625 -31.414062 13.15625 -35.832031 C 5.792969 -39.5625 8.34375 -46.042969 13.644531 -49.183594 C 17.082031 -51.34375 22.578125 -51.835938 26.40625 -51.441406 C 34.851562 -50.65625 39.464844 -44.570312 41.625 -40.644531 L 44.765625 -48.890625 C 39.367188 -51.734375 32.296875 -53.308594 25.230469 -53.308594 C 21.304688 -53.308594 17.472656 -52.816406 13.941406 -51.734375 C 8.441406 -49.96875 1.375 -45.453125 1.375 -38.777344 C 1.375 -31.511719 6.96875 -28.46875 12.46875 -26.507812 C 20.222656 -23.757812 29.84375 -23.070312 35.734375 -19.832031 C 39.957031 -17.375 41.722656 -13.351562 40.347656 -9.523438 C 38.1875 -3.535156 30.921875 -1.867188 25.425781 -1.765625 C 14.628906 -1.667969 5.007812 -10.796875 2.257812 -21.5 Z M 2.257812 -21.5 "/></g></g></g><g fill="#40ffb5" fill-opacity="1"><g transform="translate(27.424849, 103.079226)"><g><path d="M 15.609375 -13.84375 L 15.609375 -23.660156 C 20.417969 -29.351562 26.898438 -32.003906 33.28125 -34.554688 C 42.605469 -38.285156 54.191406 -42.902344 54.191406 -54.582031 C 54.191406 -64.203125 44.570312 -67.148438 36.617188 -67.148438 L 0 -67.148438 L 0 -66.265625 C 4.222656 -66.460938 6.28125 -63.613281 6.28125 -53.207031 L 6.28125 -13.84375 C 6.28125 -3.4375 4.222656 -0.6875 0 -0.882812 L 0 0 L 21.890625 0 L 21.890625 -0.882812 C 17.671875 -0.6875 15.609375 -3.4375 15.609375 -13.84375 Z M 15.609375 -65.382812 L 29.253906 -65.382812 C 36.125 -65.382812 44.765625 -63.320312 44.765625 -54.976562 C 44.765625 -48.203125 40.152344 -43.6875 35.046875 -39.957031 C 28.664062 -35.339844 20.714844 -31.414062 15.609375 -26.308594 Z M 15.609375 -65.382812 "/></g></g></g><g fill="#40ffb5" fill-opacity="1"><g transform="translate(84.658263, 103.079226)"><g><path d="M 15.117188 -13.84375 L 15.117188 -38.382812 C 16.886719 -41.230469 19.632812 -44.960938 22.777344 -47.515625 C 30.039062 -53.601562 36.519531 -46.730469 40.542969 -40.644531 L 43.6875 -48.890625 C 40.644531 -51.441406 36.714844 -53.308594 32.691406 -53.308594 C 25.230469 -53.308594 19.242188 -47.515625 15.117188 -41.625 L 15.117188 -53.308594 C 12.46875 -49.476562 5.792969 -46.828125 0 -46.828125 L 0 -45.945312 C 4.222656 -46.140625 6.28125 -43.292969 6.28125 -32.886719 L 6.28125 -13.84375 C 6.28125 -3.4375 4.222656 -0.6875 0 -0.882812 L 0 0 L 21.402344 0 L 21.402344 -0.882812 C 17.179688 -0.6875 15.117188 -3.4375 15.117188 -13.84375 Z M 15.117188 -13.84375 "/></g></g></g><g fill="#40ffb5" fill-opacity="1"><g transform="translate(134.136217, 103.079226)"><g><path d="M 27.980469 -53.308594 C 42.703125 -53.308594 54.679688 -41.328125 54.679688 -26.605469 C 54.679688 -11.878906 42.703125 0 27.980469 0 C 13.253906 0 1.375 -11.878906 1.375 -26.605469 C 1.375 -41.328125 13.253906 -53.308594 27.980469 -53.308594 Z M 19.730469 -50.066406 C 10.40625 -46.828125 6.578125 -33.671875 11.191406 -20.714844 C 15.804688 -7.753906 26.996094 0.0976562 36.324219 -3.140625 C 45.550781 -6.480469 49.378906 -19.632812 44.863281 -32.59375 C 40.25 -45.550781 29.058594 -53.40625 19.730469 -50.066406 Z M 19.730469 -50.066406 "/></g></g></g><g fill="#40ffb5" fill-opacity="1"><g transform="translate(192.842202, 103.079226)"><g><path d="M 61.257812 -4.023438 L 60.570312 -4.613281 C 58.117188 -2.652344 55.464844 -4.808594 54.191406 -6.675781 C 49.28125 -14.039062 48.789062 -28.273438 45.746094 -39.269531 C 47.21875 -41.230469 48.988281 -43.390625 51.046875 -45.160156 C 56.351562 -49.773438 62.339844 -50.460938 65.285156 -42.902344 C 69.601562 -32.003906 69.308594 -19.046875 73.628906 -8.246094 C 75.492188 -3.632812 78.144531 0 84.132812 0 C 86.980469 0 89.828125 -1.179688 91.199219 -4.023438 L 90.511719 -4.613281 C 88.15625 -2.652344 85.410156 -4.808594 84.230469 -6.675781 C 78.339844 -15.511719 78.734375 -34.359375 73.53125 -45.453125 C 70.976562 -50.949219 66.757812 -53.308594 62.238281 -53.308594 C 55.171875 -53.308594 49.378906 -47.316406 45.058594 -41.429688 C 44.570312 -42.902344 44.078125 -44.175781 43.488281 -45.453125 C 40.9375 -50.949219 36.8125 -53.308594 32.199219 -53.308594 C 25.132812 -53.308594 19.4375 -47.316406 15.117188 -41.527344 L 15.117188 -53.308594 C 12.46875 -49.476562 5.792969 -46.828125 0 -46.828125 L 0 -45.945312 C 4.222656 -46.140625 6.28125 -43.292969 6.28125 -32.886719 L 6.28125 -13.84375 C 6.28125 -3.4375 4.222656 -0.6875 0 -0.882812 L 0 0 L 21.402344 0 L 21.402344 -0.882812 C 17.179688 -0.6875 15.117188 -3.4375 15.117188 -13.84375 L 15.117188 -38.382812 C 16.6875 -40.644531 18.75 -43.195312 21.007812 -45.160156 C 26.40625 -49.773438 32.394531 -50.460938 35.339844 -42.902344 C 39.5625 -32.003906 39.269531 -19.046875 43.6875 -8.246094 C 45.550781 -3.632812 48.203125 0 54.09375 0 C 56.9375 0 59.785156 -1.179688 61.257812 -4.023438 Z M 61.257812 -4.023438 "/></g></g></g><g fill="#40ffb5" fill-opacity="1"><g transform="translate(286.398716, 103.079226)"><g><path d="M 27.980469 -53.308594 C 42.703125 -53.308594 54.679688 -41.328125 54.679688 -26.605469 C 54.679688 -11.878906 42.703125 0 27.980469 0 C 13.253906 0 1.375 -11.878906 1.375 -26.605469 C 1.375 -41.328125 13.253906 -53.308594 27.980469 -53.308594 Z M 19.730469 -50.066406 C 10.40625 -46.828125 6.578125 -33.671875 11.191406 -20.714844 C 15.804688 -7.753906 26.996094 0.0976562 36.324219 -3.140625 C 45.550781 -6.480469 49.378906 -19.632812 44.863281 -32.59375 C 40.25 -45.550781 29.058594 -53.40625 19.730469 -50.066406 Z M 19.730469 -50.066406 "/></g></g></g><g fill="#40ffb5" fill-opacity="1"><g transform="translate(345.104701, 103.079226)"><g><path d="M 2.257812 -21.5 L 1.375 -21.5 L 1.375 -8.148438 C 7.855469 -2.652344 16.101562 0 25.132812 0 C 31.808594 0 39.464844 -1.765625 43.390625 -6.96875 C 47.316406 -12.074219 47.121094 -20.714844 42.605469 -25.328125 C 35.734375 -32.296875 21.890625 -31.414062 13.15625 -35.832031 C 5.792969 -39.5625 8.34375 -46.042969 13.644531 -49.183594 C 17.082031 -51.34375 22.578125 -51.835938 26.40625 -51.441406 C 34.851562 -50.65625 39.464844 -44.570312 41.625 -40.644531 L 44.765625 -48.890625 C 39.367188 -51.734375 32.296875 -53.308594 25.230469 -53.308594 C 21.304688 -53.308594 17.472656 -52.816406 13.941406 -51.734375 C 8.441406 -49.96875 1.375 -45.453125 1.375 -38.777344 C 1.375 -31.511719 6.96875 -28.46875 12.46875 -26.507812 C 20.222656 -23.757812 29.84375 -23.070312 35.734375 -19.832031 C 39.957031 -17.375 41.722656 -13.351562 40.347656 -9.523438 C 38.1875 -3.535156 30.921875 -1.867188 25.425781 -1.765625 C 14.628906 -1.667969 5.007812 -10.796875 2.257812 -21.5 Z M 2.257812 -21.5 "/></g></g></g><g fill="#40ffb5" fill-opacity="1"><g transform="translate(397.429585, 103.079226)"><g/></g></g><g fill="#40ffb5" fill-opacity="1"><g transform="translate(426.193574, 103.079226)"><g><path d="M 55.859375 -4.023438 L 55.171875 -4.613281 C 52.816406 -2.652344 50.066406 -4.808594 48.890625 -6.675781 C 44.667969 -12.957031 43.6875 -24.347656 41.527344 -34.359375 C 38.875 -47.316406 35.339844 -53.308594 20.8125 -53.308594 C 13.253906 -53.308594 5.890625 -51.636719 0.0976562 -48.890625 L 3.238281 -40.644531 C 5.398438 -43.585938 10.011719 -48.203125 14.628906 -50.261719 C 21.992188 -53.601562 28.566406 -49.28125 24.347656 -41.035156 C 19.535156 -31.316406 0.882812 -28.566406 0 -13.941406 C -0.492188 -4.808594 6.085938 0 14.628906 0 C 28.566406 0 33.574219 -10.996094 34.457031 -22.675781 C 35.242188 -18.0625 36.226562 -13.546875 37.597656 -9.71875 C 39.5625 -4.417969 42.410156 0 48.789062 0 C 51.636719 0 54.386719 -1.179688 55.859375 -4.023438 Z M 31.90625 -37.109375 C 33.476562 -30.628906 33.183594 -21.597656 30.921875 -15.214844 C 28.765625 -9.03125 22.675781 -3.140625 15.414062 -4.910156 C 9.816406 -6.28125 8.246094 -11.386719 9.226562 -16.199219 C 11.289062 -25.621094 21.890625 -29.058594 26.113281 -36.617188 C 27.683594 -39.367188 28.566406 -43.292969 27.78125 -46.53125 C 29.746094 -43.980469 31.023438 -40.644531 31.90625 -37.109375 Z M 31.90625 -37.109375 "/></g></g></g><g fill="#40ffb5" fill-opacity="1"><g transform="translate(484.31053, 103.079226)"><g><path d="M 61.257812 -4.023438 L 60.570312 -4.613281 C 58.117188 -2.652344 55.464844 -4.808594 54.191406 -6.675781 C 48.300781 -15.511719 48.691406 -34.359375 43.488281 -45.453125 C 40.9375 -50.949219 36.8125 -53.308594 32.199219 -53.308594 C 25.132812 -53.308594 19.4375 -47.316406 15.117188 -41.527344 L 15.117188 -53.308594 C 12.46875 -49.476562 5.792969 -46.828125 0 -46.828125 L 0 -45.945312 C 4.222656 -46.140625 6.28125 -43.292969 6.28125 -32.886719 L 6.28125 -13.84375 C 6.28125 -3.4375 4.222656 -0.6875 0 -0.882812 L 0 0 L 21.402344 0 L 21.402344 -0.882812 C 17.179688 -0.6875 15.117188 -3.4375 15.117188 -13.84375 L 15.117188 -38.382812 C 16.6875 -40.644531 18.75 -43.195312 21.007812 -45.160156 C 26.40625 -49.773438 32.394531 -50.460938 35.339844 -42.902344 C 39.5625 -32.003906 39.269531 -19.046875 43.6875 -8.246094 C 45.550781 -3.632812 48.203125 0 54.09375 0 C 56.9375 0 59.785156 -1.179688 61.257812 -4.023438 Z M 61.257812 -4.023438 "/></g></g></g><g fill="#40ffb5" fill-opacity="1"><g transform="translate(548.12135, 103.079226)"><g><path d="M 44.472656 -13.84375 L 44.472656 -73.628906 C 41.820312 -69.800781 35.144531 -67.148438 29.351562 -67.148438 L 29.351562 -66.265625 C 33.574219 -66.460938 35.636719 -63.710938 35.636719 -53.308594 L 35.636719 -41.820312 C 31.90625 -48.105469 26.015625 -53.308594 18.257812 -53.308594 C 5.988281 -53.308594 0 -41.722656 0 -30.824219 C 0 -13.15625 10.40625 0 28.765625 0 L 50.753906 0 L 50.753906 -0.882812 C 46.53125 -0.6875 44.472656 -3.4375 44.472656 -13.84375 Z M 35.636719 -13.84375 C 35.636719 -5.203125 32.984375 -1.765625 28.175781 -1.765625 C 23.265625 -1.765625 17.277344 -6.183594 13.742188 -12.269531 C 9.03125 -20.519531 6.382812 -34.753906 11.976562 -43.195312 C 17.574219 -51.539062 29.058594 -51.835938 35.636719 -37.894531 Z M 35.636719 -13.84375 "/></g></g></g><g fill="#40ffb5" fill-opacity="1"><g transform="translate(601.329754, 103.079226)"><g/></g></g><g fill="#40ffb5" fill-opacity="1"><g transform="translate(630.093695, 103.079226)"><g><path d="M 33.574219 -67.148438 C 52.128906 -67.148438 67.148438 -52.128906 67.148438 -33.574219 C 67.148438 -15.019531 52.128906 0 33.574219 0 C 15.019531 0 0 -15.019531 0 -33.574219 C 0 -52.128906 15.019531 -67.148438 33.574219 -67.148438 Z M 22.777344 -63.417969 C 10.210938 -58.902344 4.910156 -41.917969 10.898438 -25.328125 C 16.886719 -8.835938 31.808594 0.882812 44.375 -3.632812 C 56.839844 -8.148438 62.238281 -25.230469 56.25 -41.722656 C 50.261719 -58.214844 35.242188 -67.933594 22.777344 -63.417969 Z M 22.777344 -63.417969 "/></g></g></g><g fill="#40ffb5" fill-opacity="1"><g transform="translate(700.285614, 103.079226)"><g><path d="M 34.652344 -69.898438 C 31.710938 -71.664062 27.683594 -73.628906 21.890625 -73.628906 C 12.171875 -73.628906 6.28125 -66.855469 6.28125 -56.25 L 6.28125 -53.308594 L 0 -53.308594 L 0 -51.539062 L 6.28125 -51.539062 L 6.28125 -13.84375 C 6.28125 -3.4375 4.222656 -0.6875 0 -0.882812 L 0 0 L 21.402344 0 L 21.402344 -0.882812 C 17.179688 -0.6875 15.117188 -3.4375 15.117188 -13.84375 L 15.117188 -51.539062 L 27.390625 -51.539062 L 27.390625 -53.308594 L 15.117188 -53.308594 L 15.117188 -61.945312 C 15.117188 -65.183594 15.609375 -71.664062 20.027344 -71.859375 C 24.542969 -71.960938 29.648438 -64.597656 31.511719 -61.652344 Z M 34.652344 -69.898438 "/></g></g></g><g fill="#40ffb5" fill-opacity="1"><g transform="translate(731.012968, 103.079226)"><g><path d="M 34.652344 -69.898438 C 31.710938 -71.664062 27.683594 -73.628906 21.890625 -73.628906 C 12.171875 -73.628906 6.28125 -66.855469 6.28125 -56.25 L 6.28125 -53.308594 L 0 -53.308594 L 0 -51.539062 L 6.28125 -51.539062 L 6.28125 -13.84375 C 6.28125 -3.4375 4.222656 -0.6875 0 -0.882812 L 0 0 L 21.402344 0 L 21.402344 -0.882812 C 17.179688 -0.6875 15.117188 -3.4375 15.117188 -13.84375 L 15.117188 -51.539062 L 27.390625 -51.539062 L 27.390625 -53.308594 L 15.117188 -53.308594 L 15.117188 -61.945312 C 15.117188 -65.183594 15.609375 -71.664062 20.027344 -71.859375 C 24.542969 -71.960938 29.648438 -64.597656 31.511719 -61.652344 Z M 34.652344 -69.898438 "/></g></g></g><g fill="#40ffb5" fill-opacity="1"><g transform="translate(761.740367, 103.079226)"><g><path d="M 27.980469 -53.308594 C 13.351562 -53.308594 1.375 -41.328125 1.375 -26.605469 C 1.375 -11.878906 13.351562 0 27.980469 0 C 40.542969 0 50.949219 -8.640625 53.894531 -20.222656 L 53.011719 -20.222656 C 49.675781 -10.601562 42.214844 -4.910156 34.359375 -4.023438 C 21.792969 -2.652344 12.761719 -13.15625 10.113281 -24.347656 C 9.523438 -26.800781 9.328125 -29.15625 9.226562 -31.511719 C 22.578125 -31.511719 36.324219 -31.511719 49.675781 -31.511719 C 49.773438 -42.015625 41.625 -53.308594 27.980469 -53.308594 Z M 40.839844 -33.28125 L 9.328125 -33.28125 C 9.71875 -41.230469 13.546875 -47.90625 19.730469 -50.066406 C 28.566406 -53.207031 39.464844 -46.632812 40.839844 -33.28125 Z M 40.839844 -33.28125 "/></g></g></g><g fill="#40ffb5" fill-opacity="1"><g transform="translate(818.973805, 103.079226)"><g><path d="M 15.117188 -13.84375 L 15.117188 -38.382812 C 16.886719 -41.230469 19.632812 -44.960938 22.777344 -47.515625 C 30.039062 -53.601562 36.519531 -46.730469 40.542969 -40.644531 L 43.6875 -48.890625 C 40.644531 -51.441406 36.714844 -53.308594 32.691406 -53.308594 C 25.230469 -53.308594 19.242188 -47.515625 15.117188 -41.625 L 15.117188 -53.308594 C 12.46875 -49.476562 5.792969 -46.828125 0 -46.828125 L 0 -45.945312 C 4.222656 -46.140625 6.28125 -43.292969 6.28125 -32.886719 L 6.28125 -13.84375 C 6.28125 -3.4375 4.222656 -0.6875 0 -0.882812 L 0 0 L 21.402344 0 L 21.402344 -0.882812 C 17.179688 -0.6875 15.117188 -3.4375 15.117188 -13.84375 Z M 15.117188 -13.84375 "/></g></g></g><g fill="#40ffb5" fill-opacity="1"><g transform="translate(868.451805, 103.079226)"><g><path d="M 2.257812 -21.5 L 1.375 -21.5 L 1.375 -8.148438 C 7.855469 -2.652344 16.101562 0 25.132812 0 C 31.808594 0 39.464844 -1.765625 43.390625 -6.96875 C 47.316406 -12.074219 47.121094 -20.714844 42.605469 -25.328125 C 35.734375 -32.296875 21.890625 -31.414062 13.15625 -35.832031 C 5.792969 -39.5625 8.34375 -46.042969 13.644531 -49.183594 C 17.082031 -51.34375 22.578125 -51.835938 26.40625 -51.441406 C 34.851562 -50.65625 39.464844 -44.570312 41.625 -40.644531 L 44.765625 -48.890625 C 39.367188 -51.734375 32.296875 -53.308594 25.230469 -53.308594 C 21.304688 -53.308594 17.472656 -52.816406 13.941406 -51.734375 C 8.441406 -49.96875 1.375 -45.453125 1.375 -38.777344 C 1.375 -31.511719 6.96875 -28.46875 12.46875 -26.507812 C 20.222656 -23.757812 29.84375 -23.070312 35.734375 -19.832031 C 39.957031 -17.375 41.722656 -13.351562 40.347656 -9.523438 C 38.1875 -3.535156 30.921875 -1.867188 25.425781 -1.765625 C 14.628906 -1.667969 5.007812 -10.796875 2.257812 -21.5 Z M 2.257812 -21.5 "/></g></g></g></svg>