<svg xmlns="http://www.w3.org/2000/svg" xmlns:xlink="http://www.w3.org/1999/xlink" width="1440" zoomAndPan="magnify" viewBox="0 0 1080 221.249992" height="295" preserveAspectRatio="xMidYMid meet" version="1.0"><defs><g/></defs><g fill="#40ffb5" fill-opacity="1"><g transform="translate(29.72819, 144.410457)"><g><path d="M 46.210938 -19.390625 L 46.210938 -91.597656 L 49.648438 -91.597656 C 60.789062 -91.597656 73.855469 -83.894531 78.121094 -73.304688 L 79.355469 -73.304688 L 73.582031 -94.074219 L 5.640625 -94.074219 L 0 -73.304688 L 1.238281 -73.304688 C 5.363281 -83.894531 18.566406 -91.597656 29.570312 -91.597656 L 33.144531 -91.597656 L 33.144531 -19.390625 C 33.144531 -4.8125 30.257812 -0.960938 24.34375 -1.238281 L 24.34375 0 L 55.011719 0 L 55.011719 -1.238281 C 49.097656 -0.960938 46.210938 -4.8125 46.210938 -19.390625 Z M 46.210938 -19.390625 "/></g></g></g><g fill="#40ffb5" fill-opacity="1"><g transform="translate(113.073666, 144.410457)"><g><path d="M 21.179688 -19.390625 L 21.179688 -53.777344 C 23.65625 -57.765625 27.507812 -62.992188 31.90625 -66.566406 C 42.085938 -75.09375 51.164062 -65.464844 56.800781 -56.9375 L 61.203125 -68.492188 C 56.9375 -72.066406 51.4375 -74.679688 45.796875 -74.679688 C 35.347656 -74.679688 26.957031 -66.566406 21.179688 -58.3125 L 21.179688 -74.679688 C 17.464844 -69.316406 8.113281 -65.605469 0 -65.605469 L 0 -64.367188 C 5.914062 -64.640625 8.800781 -60.652344 8.800781 -46.074219 L 8.800781 -19.390625 C 8.800781 -4.8125 5.914062 -0.960938 0 -1.238281 L 0 0 L 29.980469 0 L 29.980469 -1.238281 C 24.070312 -0.960938 21.179688 -4.8125 21.179688 -19.390625 Z M 21.179688 -19.390625 "/></g></g></g><g fill="#40ffb5" fill-opacity="1"><g transform="translate(182.390694, 144.410457)"><g><path d="M 39.195312 -74.679688 C 59.828125 -74.679688 76.605469 -57.902344 76.605469 -37.273438 C 76.605469 -16.640625 59.828125 0 39.195312 0 C 18.566406 0 1.925781 -16.640625 1.925781 -37.273438 C 1.925781 -57.902344 18.566406 -74.679688 39.195312 -74.679688 Z M 27.644531 -70.140625 C 14.578125 -65.605469 9.214844 -47.175781 15.679688 -29.019531 C 22.144531 -10.863281 37.820312 0.136719 50.886719 -4.402344 C 63.816406 -9.078125 69.179688 -27.507812 62.851562 -45.660156 C 56.390625 -63.816406 40.710938 -74.820312 27.644531 -70.140625 Z M 27.644531 -70.140625 "/></g></g></g><g fill="#40ffb5" fill-opacity="1"><g transform="translate(264.6359, 144.410457)"><g><path d="M 21.179688 9.078125 L 21.179688 -3.164062 C 24.480469 -0.414062 29.292969 0 33.695312 0 C 58.3125 0 71.105469 -23.792969 71.105469 -45.25 C 71.105469 -60.925781 63.679688 -74.679688 48.6875 -74.679688 C 37.273438 -74.679688 27.917969 -67.390625 21.179688 -58.3125 L 21.179688 -74.679688 C 17.464844 -69.316406 8.113281 -65.605469 0 -65.605469 L 0 -64.367188 C 5.914062 -64.640625 8.800781 -60.789062 8.800781 -46.210938 L 8.800781 9.078125 C 8.800781 23.65625 5.914062 27.507812 0 27.230469 L 0 28.46875 L 29.980469 28.46875 L 29.980469 27.230469 C 24.070312 27.507812 21.179688 23.65625 21.179688 9.078125 Z M 21.179688 -54.050781 C 26.542969 -61.890625 34.933594 -70.554688 45.25 -68.765625 C 56.25 -66.839844 58.863281 -53.226562 58.726562 -43.875 C 58.589844 -28.46875 50.613281 -2.339844 31.632812 -2.476562 C 22.144531 -2.613281 21.179688 -12.101562 21.179688 -19.390625 Z M 21.179688 -54.050781 "/></g></g></g><g fill="#40ffb5" fill-opacity="1"><g transform="translate(344.405512, 144.410457)"><g><path d="M 21.179688 -19.390625 L 21.179688 -74.679688 C 17.464844 -69.316406 8.113281 -65.605469 0 -65.605469 L 0 -64.367188 C 5.914062 -64.640625 8.800781 -60.652344 8.800781 -46.074219 L 8.800781 -19.390625 C 8.800781 -4.8125 5.914062 -0.960938 0 -1.238281 L 0 0 L 29.980469 0 L 29.980469 -1.238281 C 24.070312 -0.960938 21.179688 -4.8125 21.179688 -19.390625 Z M 14.992188 -94.074219 C 10.039062 -94.074219 5.914062 -90.085938 5.914062 -85.132812 C 5.914062 -80.042969 10.039062 -76.054688 14.992188 -76.054688 C 19.941406 -76.054688 24.070312 -80.042969 24.070312 -85.132812 C 24.070312 -90.085938 19.941406 -94.074219 14.992188 -94.074219 Z M 14.992188 -94.074219 "/></g></g></g><g fill="#40ffb5" fill-opacity="1"><g transform="translate(377.826223, 144.410457)"><g><path d="M 65.054688 -68.492188 C 56.9375 -72.617188 48.410156 -74.679688 40.160156 -74.679688 C 19.804688 -74.679688 2.0625 -57.902344 2.0625 -37.273438 C 2.0625 -25.855469 7.289062 -15.542969 15.402344 -8.800781 C 21.867188 -3.300781 30.257812 0 39.335938 0 C 56.9375 0 71.515625 -12.101562 75.644531 -28.332031 L 74.40625 -28.332031 C 69.730469 -14.855469 59.277344 -6.875 48.273438 -5.640625 C 30.671875 -3.714844 18.015625 -18.429688 14.304688 -34.109375 C 10.453125 -50.476562 15.953125 -66.015625 27.78125 -70.140625 C 39.472656 -74.269531 50.0625 -69.730469 60.378906 -57.488281 Z M 65.054688 -68.492188 "/></g></g><g transform="translate(458.008417, 144.410457)"><g><path d="M 78.257812 -5.640625 L 77.292969 -6.464844 C 73.992188 -3.714844 70.140625 -6.738281 68.492188 -9.351562 C 62.578125 -18.15625 61.203125 -34.109375 58.175781 -48.136719 C 54.464844 -66.292969 49.511719 -74.679688 29.15625 -74.679688 C 18.566406 -74.679688 8.253906 -72.34375 0.136719 -68.492188 L 4.539062 -56.9375 C 7.5625 -61.066406 14.027344 -67.527344 20.492188 -70.417969 C 30.808594 -75.09375 40.023438 -69.042969 34.109375 -57.488281 C 27.371094 -43.875 1.238281 -40.023438 0 -19.53125 C -0.6875 -6.738281 8.527344 0 20.492188 0 C 40.023438 0 47.035156 -15.402344 48.273438 -31.769531 C 49.375 -25.304688 50.75 -18.980469 52.675781 -13.617188 C 55.425781 -6.1875 59.414062 0 68.355469 0 C 72.34375 0 76.195312 -1.652344 78.257812 -5.640625 Z M 44.699219 -51.988281 C 46.898438 -42.910156 46.488281 -30.257812 43.324219 -21.316406 C 40.296875 -12.652344 31.769531 -4.402344 21.59375 -6.875 C 13.753906 -8.800781 11.554688 -15.953125 12.929688 -22.691406 C 15.816406 -35.894531 30.671875 -40.710938 36.585938 -51.300781 C 38.785156 -55.152344 40.023438 -60.652344 38.921875 -65.191406 C 41.671875 -61.613281 43.460938 -56.9375 44.699219 -51.988281 Z M 44.699219 -51.988281 "/></g></g></g><g fill="#40ffb5" fill-opacity="1"><g transform="translate(539.428392, 144.410457)"><g><path d="M 21.179688 -19.390625 L 21.179688 -103.148438 C 17.464844 -97.785156 8.113281 -94.074219 0 -94.074219 L 0 -92.835938 C 5.914062 -93.109375 8.800781 -89.257812 8.800781 -74.679688 L 8.800781 -19.390625 C 8.800781 -4.8125 5.914062 -0.960938 0 -1.238281 L 0 0 L 29.980469 0 L 29.980469 -1.238281 C 24.070312 -0.960938 21.179688 -4.8125 21.179688 -19.390625 Z M 21.179688 -19.390625 "/></g></g></g><g fill="#40ffb5" fill-opacity="1"><g transform="translate(572.849125, 144.410457)"><g/></g></g><g fill="#40ffb5" fill-opacity="1"><g transform="translate(613.146511, 144.410457)"><g><path d="M 21.867188 -19.390625 L 21.867188 -33.144531 C 28.605469 -41.121094 37.683594 -44.835938 46.625 -48.410156 C 59.691406 -53.636719 75.917969 -60.101562 75.917969 -76.46875 C 75.917969 -89.945312 62.441406 -94.074219 51.300781 -94.074219 L 0 -94.074219 L 0 -92.835938 C 5.914062 -93.109375 8.800781 -89.121094 8.800781 -74.542969 L 8.800781 -19.390625 C 8.800781 -4.8125 5.914062 -0.960938 0 -1.238281 L 0 0 L 30.671875 0 L 30.671875 -1.238281 C 24.757812 -0.960938 21.867188 -4.8125 21.867188 -19.390625 Z M 21.867188 -91.597656 L 40.984375 -91.597656 C 50.613281 -91.597656 62.714844 -88.710938 62.714844 -77.019531 C 62.714844 -67.527344 56.25 -61.203125 49.097656 -55.976562 C 40.160156 -49.511719 29.019531 -44.011719 21.867188 -36.859375 Z M 21.867188 -91.597656 "/></g></g></g><g fill="#40ffb5" fill-opacity="1"><g transform="translate(693.328681, 144.410457)"><g><path d="M 78.257812 -5.640625 L 77.292969 -6.464844 C 73.992188 -3.714844 70.140625 -6.738281 68.492188 -9.351562 C 62.578125 -18.15625 61.203125 -34.109375 58.175781 -48.136719 C 54.464844 -66.292969 49.511719 -74.679688 29.15625 -74.679688 C 18.566406 -74.679688 8.253906 -72.34375 0.136719 -68.492188 L 4.539062 -56.9375 C 7.5625 -61.066406 14.027344 -67.527344 20.492188 -70.417969 C 30.808594 -75.09375 40.023438 -69.042969 34.109375 -57.488281 C 27.371094 -43.875 1.238281 -40.023438 0 -19.53125 C -0.6875 -6.738281 8.527344 0 20.492188 0 C 40.023438 0 47.035156 -15.402344 48.273438 -31.769531 C 49.375 -25.304688 50.75 -18.980469 52.675781 -13.617188 C 55.425781 -6.1875 59.414062 0 68.355469 0 C 72.34375 0 76.195312 -1.652344 78.257812 -5.640625 Z M 44.699219 -51.988281 C 46.898438 -42.910156 46.488281 -30.257812 43.324219 -21.316406 C 40.296875 -12.652344 31.769531 -4.402344 21.59375 -6.875 C 13.753906 -8.800781 11.554688 -15.953125 12.929688 -22.691406 C 15.816406 -35.894531 30.671875 -40.710938 36.585938 -51.300781 C 38.785156 -55.152344 40.023438 -60.652344 38.921875 -65.191406 C 41.671875 -61.613281 43.460938 -56.9375 44.699219 -51.988281 Z M 44.699219 -51.988281 "/></g></g></g><g fill="#40ffb5" fill-opacity="1"><g transform="translate(774.748659, 144.410457)"><g><path d="M 21.179688 -19.390625 L 21.179688 -103.148438 C 17.464844 -97.785156 8.113281 -94.074219 0 -94.074219 L 0 -92.835938 C 5.914062 -93.109375 8.800781 -89.257812 8.800781 -74.679688 L 8.800781 -19.390625 C 8.800781 -4.8125 5.914062 -0.960938 0 -1.238281 L 0 0 L 29.980469 0 L 29.980469 -1.238281 C 24.070312 -0.960938 21.179688 -4.8125 21.179688 -19.390625 Z M 21.179688 -19.390625 "/></g></g></g><g fill="#40ffb5" fill-opacity="1"><g transform="translate(808.169393, 144.410457)"><g><path d="M 78.257812 -5.640625 L 77.292969 -6.464844 C 73.992188 -3.714844 70.140625 -6.738281 68.492188 -9.351562 C 62.578125 -18.15625 61.203125 -34.109375 58.175781 -48.136719 C 54.464844 -66.292969 49.511719 -74.679688 29.15625 -74.679688 C 18.566406 -74.679688 8.253906 -72.34375 0.136719 -68.492188 L 4.539062 -56.9375 C 7.5625 -61.066406 14.027344 -67.527344 20.492188 -70.417969 C 30.808594 -75.09375 40.023438 -69.042969 34.109375 -57.488281 C 27.371094 -43.875 1.238281 -40.023438 0 -19.53125 C -0.6875 -6.738281 8.527344 0 20.492188 0 C 40.023438 0 47.035156 -15.402344 48.273438 -31.769531 C 49.375 -25.304688 50.75 -18.980469 52.675781 -13.617188 C 55.425781 -6.1875 59.414062 0 68.355469 0 C 72.34375 0 76.195312 -1.652344 78.257812 -5.640625 Z M 44.699219 -51.988281 C 46.898438 -42.910156 46.488281 -30.257812 43.324219 -21.316406 C 40.296875 -12.652344 31.769531 -4.402344 21.59375 -6.875 C 13.753906 -8.800781 11.554688 -15.953125 12.929688 -22.691406 C 15.816406 -35.894531 30.671875 -40.710938 36.585938 -51.300781 C 38.785156 -55.152344 40.023438 -60.652344 38.921875 -65.191406 C 41.671875 -61.613281 43.460938 -56.9375 44.699219 -51.988281 Z M 44.699219 -51.988281 "/></g></g></g><g fill="#40ffb5" fill-opacity="1"><g transform="translate(889.58937, 144.410457)"><g><path d="M 65.054688 -68.492188 C 56.9375 -72.617188 48.410156 -74.679688 40.160156 -74.679688 C 19.804688 -74.679688 2.0625 -57.902344 2.0625 -37.273438 C 2.0625 -25.855469 7.289062 -15.542969 15.402344 -8.800781 C 21.867188 -3.300781 30.257812 0 39.335938 0 C 56.9375 0 71.515625 -12.101562 75.644531 -28.332031 L 74.40625 -28.332031 C 69.730469 -14.855469 59.277344 -6.875 48.273438 -5.640625 C 30.671875 -3.714844 18.015625 -18.429688 14.304688 -34.109375 C 10.453125 -50.476562 15.953125 -66.015625 27.78125 -70.140625 C 39.472656 -74.269531 50.0625 -69.730469 60.378906 -57.488281 Z M 65.054688 -68.492188 "/></g></g></g><g fill="#40ffb5" fill-opacity="1"><g transform="translate(969.77154, 144.410457)"><g><path d="M 39.195312 -74.679688 C 18.703125 -74.679688 1.925781 -57.902344 1.925781 -37.273438 C 1.925781 -16.640625 18.703125 0 39.195312 0 C 56.800781 0 71.378906 -12.101562 75.507812 -28.332031 L 74.269531 -28.332031 C 69.59375 -14.855469 59.140625 -6.875 48.136719 -5.640625 C 30.53125 -3.714844 17.878906 -18.429688 14.164062 -34.109375 C 13.339844 -37.546875 13.066406 -40.847656 12.929688 -44.148438 C 31.632812 -44.148438 50.886719 -44.148438 69.59375 -44.148438 C 69.730469 -58.863281 58.3125 -74.679688 39.195312 -74.679688 Z M 57.214844 -46.625 L 13.066406 -46.625 C 13.617188 -57.765625 18.980469 -67.117188 27.644531 -70.140625 C 40.023438 -74.542969 55.289062 -65.328125 57.214844 -46.625 Z M 57.214844 -46.625 "/></g></g></g><g fill="#40ffb5" fill-opacity="1"><g transform="translate(29.72819, 144.410457)"><g><path d="M 46.210938 -19.390625 L 46.210938 -91.597656 L 49.648438 -91.597656 C 60.789062 -91.597656 73.855469 -83.894531 78.121094 -73.304688 L 79.355469 -73.304688 L 73.582031 -94.074219 L 5.640625 -94.074219 L 0 -73.304688 L 1.238281 -73.304688 C 5.363281 -83.894531 18.566406 -91.597656 29.570312 -91.597656 L 33.144531 -91.597656 L 33.144531 -19.390625 C 33.144531 -4.8125 30.257812 -0.960938 24.34375 -1.238281 L 24.34375 0 L 55.011719 0 L 55.011719 -1.238281 C 49.097656 -0.960938 46.210938 -4.8125 46.210938 -19.390625 Z M 46.210938 -19.390625 "/></g></g></g><g fill="#40ffb5" fill-opacity="1"><g transform="translate(113.073666, 144.410457)"><g><path d="M 21.179688 -19.390625 L 21.179688 -53.777344 C 23.65625 -57.765625 27.507812 -62.992188 31.90625 -66.566406 C 42.085938 -75.09375 51.164062 -65.464844 56.800781 -56.9375 L 61.203125 -68.492188 C 56.9375 -72.066406 51.4375 -74.679688 45.796875 -74.679688 C 35.347656 -74.679688 26.957031 -66.566406 21.179688 -58.3125 L 21.179688 -74.679688 C 17.464844 -69.316406 8.113281 -65.605469 0 -65.605469 L 0 -64.367188 C 5.914062 -64.640625 8.800781 -60.652344 8.800781 -46.074219 L 8.800781 -19.390625 C 8.800781 -4.8125 5.914062 -0.960938 0 -1.238281 L 0 0 L 29.980469 0 L 29.980469 -1.238281 C 24.070312 -0.960938 21.179688 -4.8125 21.179688 -19.390625 Z M 21.179688 -19.390625 "/></g></g></g><g fill="#40ffb5" fill-opacity="1"><g transform="translate(182.390694, 144.410457)"><g><path d="M 39.195312 -74.679688 C 59.828125 -74.679688 76.605469 -57.902344 76.605469 -37.273438 C 76.605469 -16.640625 59.828125 0 39.195312 0 C 18.566406 0 1.925781 -16.640625 1.925781 -37.273438 C 1.925781 -57.902344 18.566406 -74.679688 39.195312 -74.679688 Z M 27.644531 -70.140625 C 14.578125 -65.605469 9.214844 -47.175781 15.679688 -29.019531 C 22.144531 -10.863281 37.820312 0.136719 50.886719 -4.402344 C 63.816406 -9.078125 69.179688 -27.507812 62.851562 -45.660156 C 56.390625 -63.816406 40.710938 -74.820312 27.644531 -70.140625 Z M 27.644531 -70.140625 "/></g></g></g><g fill="#40ffb5" fill-opacity="1"><g transform="translate(264.6359, 144.410457)"><g><path d="M 21.179688 9.078125 L 21.179688 -3.164062 C 24.480469 -0.414062 29.292969 0 33.695312 0 C 58.3125 0 71.105469 -23.792969 71.105469 -45.25 C 71.105469 -60.925781 63.679688 -74.679688 48.6875 -74.679688 C 37.273438 -74.679688 27.917969 -67.390625 21.179688 -58.3125 L 21.179688 -74.679688 C 17.464844 -69.316406 8.113281 -65.605469 0 -65.605469 L 0 -64.367188 C 5.914062 -64.640625 8.800781 -60.789062 8.800781 -46.210938 L 8.800781 9.078125 C 8.800781 23.65625 5.914062 27.507812 0 27.230469 L 0 28.46875 L 29.980469 28.46875 L 29.980469 27.230469 C 24.070312 27.507812 21.179688 23.65625 21.179688 9.078125 Z M 21.179688 -54.050781 C 26.542969 -61.890625 34.933594 -70.554688 45.25 -68.765625 C 56.25 -66.839844 58.863281 -53.226562 58.726562 -43.875 C 58.589844 -28.46875 50.613281 -2.339844 31.632812 -2.476562 C 22.144531 -2.613281 21.179688 -12.101562 21.179688 -19.390625 Z M 21.179688 -54.050781 "/></g></g></g><g fill="#40ffb5" fill-opacity="1"><g transform="translate(344.405512, 144.410457)"><g><path d="M 21.179688 -19.390625 L 21.179688 -74.679688 C 17.464844 -69.316406 8.113281 -65.605469 0 -65.605469 L 0 -64.367188 C 5.914062 -64.640625 8.800781 -60.652344 8.800781 -46.074219 L 8.800781 -19.390625 C 8.800781 -4.8125 5.914062 -0.960938 0 -1.238281 L 0 0 L 29.980469 0 L 29.980469 -1.238281 C 24.070312 -0.960938 21.179688 -4.8125 21.179688 -19.390625 Z M 14.992188 -94.074219 C 10.039062 -94.074219 5.914062 -90.085938 5.914062 -85.132812 C 5.914062 -80.042969 10.039062 -76.054688 14.992188 -76.054688 C 19.941406 -76.054688 24.070312 -80.042969 24.070312 -85.132812 C 24.070312 -90.085938 19.941406 -94.074219 14.992188 -94.074219 Z M 14.992188 -94.074219 "/></g></g></g><g fill="#40ffb5" fill-opacity="1"><g transform="translate(377.826223, 144.410457)"><g><path d="M 65.054688 -68.492188 C 56.9375 -72.617188 48.410156 -74.679688 40.160156 -74.679688 C 19.804688 -74.679688 2.0625 -57.902344 2.0625 -37.273438 C 2.0625 -25.855469 7.289062 -15.542969 15.402344 -8.800781 C 21.867188 -3.300781 30.257812 0 39.335938 0 C 56.9375 0 71.515625 -12.101562 75.644531 -28.332031 L 74.40625 -28.332031 C 69.730469 -14.855469 59.277344 -6.875 48.273438 -5.640625 C 30.671875 -3.714844 18.015625 -18.429688 14.304688 -34.109375 C 10.453125 -50.476562 15.953125 -66.015625 27.78125 -70.140625 C 39.472656 -74.269531 50.0625 -69.730469 60.378906 -57.488281 Z M 65.054688 -68.492188 "/></g></g><g transform="translate(458.008417, 144.410457)"><g><path d="M 78.257812 -5.640625 L 77.292969 -6.464844 C 73.992188 -3.714844 70.140625 -6.738281 68.492188 -9.351562 C 62.578125 -18.15625 61.203125 -34.109375 58.175781 -48.136719 C 54.464844 -66.292969 49.511719 -74.679688 29.15625 -74.679688 C 18.566406 -74.679688 8.253906 -72.34375 0.136719 -68.492188 L 4.539062 -56.9375 C 7.5625 -61.066406 14.027344 -67.527344 20.492188 -70.417969 C 30.808594 -75.09375 40.023438 -69.042969 34.109375 -57.488281 C 27.371094 -43.875 1.238281 -40.023438 0 -19.53125 C -0.6875 -6.738281 8.527344 0 20.492188 0 C 40.023438 0 47.035156 -15.402344 48.273438 -31.769531 C 49.375 -25.304688 50.75 -18.980469 52.675781 -13.617188 C 55.425781 -6.1875 59.414062 0 68.355469 0 C 72.34375 0 76.195312 -1.652344 78.257812 -5.640625 Z M 44.699219 -51.988281 C 46.898438 -42.910156 46.488281 -30.257812 43.324219 -21.316406 C 40.296875 -12.652344 31.769531 -4.402344 21.59375 -6.875 C 13.753906 -8.800781 11.554688 -15.953125 12.929688 -22.691406 C 15.816406 -35.894531 30.671875 -40.710938 36.585938 -51.300781 C 38.785156 -55.152344 40.023438 -60.652344 38.921875 -65.191406 C 41.671875 -61.613281 43.460938 -56.9375 44.699219 -51.988281 Z M 44.699219 -51.988281 "/></g></g></g><g fill="#40ffb5" fill-opacity="1"><g transform="translate(539.428392, 144.410457)"><g><path d="M 21.179688 -19.390625 L 21.179688 -103.148438 C 17.464844 -97.785156 8.113281 -94.074219 0 -94.074219 L 0 -92.835938 C 5.914062 -93.109375 8.800781 -89.257812 8.800781 -74.679688 L 8.800781 -19.390625 C 8.800781 -4.8125 5.914062 -0.960938 0 -1.238281 L 0 0 L 29.980469 0 L 29.980469 -1.238281 C 24.070312 -0.960938 21.179688 -4.8125 21.179688 -19.390625 Z M 21.179688 -19.390625 "/></g></g></g><g fill="#40ffb5" fill-opacity="1"><g transform="translate(572.849125, 144.410457)"><g/></g></g><g fill="#40ffb5" fill-opacity="1"><g transform="translate(613.146511, 144.410457)"><g><path d="M 21.867188 -19.390625 L 21.867188 -33.144531 C 28.605469 -41.121094 37.683594 -44.835938 46.625 -48.410156 C 59.691406 -53.636719 75.917969 -60.101562 75.917969 -76.46875 C 75.917969 -89.945312 62.441406 -94.074219 51.300781 -94.074219 L 0 -94.074219 L 0 -92.835938 C 5.914062 -93.109375 8.800781 -89.121094 8.800781 -74.542969 L 8.800781 -19.390625 C 8.800781 -4.8125 5.914062 -0.960938 0 -1.238281 L 0 0 L 30.671875 0 L 30.671875 -1.238281 C 24.757812 -0.960938 21.867188 -4.8125 21.867188 -19.390625 Z M 21.867188 -91.597656 L 40.984375 -91.597656 C 50.613281 -91.597656 62.714844 -88.710938 62.714844 -77.019531 C 62.714844 -67.527344 56.25 -61.203125 49.097656 -55.976562 C 40.160156 -49.511719 29.019531 -44.011719 21.867188 -36.859375 Z M 21.867188 -91.597656 "/></g></g></g><g fill="#40ffb5" fill-opacity="1"><g transform="translate(693.328681, 144.410457)"><g><path d="M 78.257812 -5.640625 L 77.292969 -6.464844 C 73.992188 -3.714844 70.140625 -6.738281 68.492188 -9.351562 C 62.578125 -18.15625 61.203125 -34.109375 58.175781 -48.136719 C 54.464844 -66.292969 49.511719 -74.679688 29.15625 -74.679688 C 18.566406 -74.679688 8.253906 -72.34375 0.136719 -68.492188 L 4.539062 -56.9375 C 7.5625 -61.066406 14.027344 -67.527344 20.492188 -70.417969 C 30.808594 -75.09375 40.023438 -69.042969 34.109375 -57.488281 C 27.371094 -43.875 1.238281 -40.023438 0 -19.53125 C -0.6875 -6.738281 8.527344 0 20.492188 0 C 40.023438 0 47.035156 -15.402344 48.273438 -31.769531 C 49.375 -25.304688 50.75 -18.980469 52.675781 -13.617188 C 55.425781 -6.1875 59.414062 0 68.355469 0 C 72.34375 0 76.195312 -1.652344 78.257812 -5.640625 Z M 44.699219 -51.988281 C 46.898438 -42.910156 46.488281 -30.257812 43.324219 -21.316406 C 40.296875 -12.652344 31.769531 -4.402344 21.59375 -6.875 C 13.753906 -8.800781 11.554688 -15.953125 12.929688 -22.691406 C 15.816406 -35.894531 30.671875 -40.710938 36.585938 -51.300781 C 38.785156 -55.152344 40.023438 -60.652344 38.921875 -65.191406 C 41.671875 -61.613281 43.460938 -56.9375 44.699219 -51.988281 Z M 44.699219 -51.988281 "/></g></g></g><g fill="#40ffb5" fill-opacity="1"><g transform="translate(774.748659, 144.410457)"><g><path d="M 21.179688 -19.390625 L 21.179688 -103.148438 C 17.464844 -97.785156 8.113281 -94.074219 0 -94.074219 L 0 -92.835938 C 5.914062 -93.109375 8.800781 -89.257812 8.800781 -74.679688 L 8.800781 -19.390625 C 8.800781 -4.8125 5.914062 -0.960938 0 -1.238281 L 0 0 L 29.980469 0 L 29.980469 -1.238281 C 24.070312 -0.960938 21.179688 -4.8125 21.179688 -19.390625 Z M 21.179688 -19.390625 "/></g></g></g><g fill="#40ffb5" fill-opacity="1"><g transform="translate(808.169393, 144.410457)"><g><path d="M 78.257812 -5.640625 L 77.292969 -6.464844 C 73.992188 -3.714844 70.140625 -6.738281 68.492188 -9.351562 C 62.578125 -18.15625 61.203125 -34.109375 58.175781 -48.136719 C 54.464844 -66.292969 49.511719 -74.679688 29.15625 -74.679688 C 18.566406 -74.679688 8.253906 -72.34375 0.136719 -68.492188 L 4.539062 -56.9375 C 7.5625 -61.066406 14.027344 -67.527344 20.492188 -70.417969 C 30.808594 -75.09375 40.023438 -69.042969 34.109375 -57.488281 C 27.371094 -43.875 1.238281 -40.023438 0 -19.53125 C -0.6875 -6.738281 8.527344 0 20.492188 0 C 40.023438 0 47.035156 -15.402344 48.273438 -31.769531 C 49.375 -25.304688 50.75 -18.980469 52.675781 -13.617188 C 55.425781 -6.1875 59.414062 0 68.355469 0 C 72.34375 0 76.195312 -1.652344 78.257812 -5.640625 Z M 44.699219 -51.988281 C 46.898438 -42.910156 46.488281 -30.257812 43.324219 -21.316406 C 40.296875 -12.652344 31.769531 -4.402344 21.59375 -6.875 C 13.753906 -8.800781 11.554688 -15.953125 12.929688 -22.691406 C 15.816406 -35.894531 30.671875 -40.710938 36.585938 -51.300781 C 38.785156 -55.152344 40.023438 -60.652344 38.921875 -65.191406 C 41.671875 -61.613281 43.460938 -56.9375 44.699219 -51.988281 Z M 44.699219 -51.988281 "/></g></g></g><g fill="#40ffb5" fill-opacity="1"><g transform="translate(889.58937, 144.410457)"><g><path d="M 65.054688 -68.492188 C 56.9375 -72.617188 48.410156 -74.679688 40.160156 -74.679688 C 19.804688 -74.679688 2.0625 -57.902344 2.0625 -37.273438 C 2.0625 -25.855469 7.289062 -15.542969 15.402344 -8.800781 C 21.867188 -3.300781 30.257812 0 39.335938 0 C 56.9375 0 71.515625 -12.101562 75.644531 -28.332031 L 74.40625 -28.332031 C 69.730469 -14.855469 59.277344 -6.875 48.273438 -5.640625 C 30.671875 -3.714844 18.015625 -18.429688 14.304688 -34.109375 C 10.453125 -50.476562 15.953125 -66.015625 27.78125 -70.140625 C 39.472656 -74.269531 50.0625 -69.730469 60.378906 -57.488281 Z M 65.054688 -68.492188 "/></g></g></g><g fill="#40ffb5" fill-opacity="1"><g transform="translate(969.77154, 144.410457)"><g><path d="M 39.195312 -74.679688 C 18.703125 -74.679688 1.925781 -57.902344 1.925781 -37.273438 C 1.925781 -16.640625 18.703125 0 39.195312 0 C 56.800781 0 71.378906 -12.101562 75.507812 -28.332031 L 74.269531 -28.332031 C 69.59375 -14.855469 59.140625 -6.875 48.136719 -5.640625 C 30.53125 -3.714844 17.878906 -18.429688 14.164062 -34.109375 C 13.339844 -37.546875 13.066406 -40.847656 12.929688 -44.148438 C 31.632812 -44.148438 50.886719 -44.148438 69.59375 -44.148438 C 69.730469 -58.863281 58.3125 -74.679688 39.195312 -74.679688 Z M 57.214844 -46.625 L 13.066406 -46.625 C 13.617188 -57.765625 18.980469 -67.117188 27.644531 -70.140625 C 40.023438 -74.542969 55.289062 -65.328125 57.214844 -46.625 Z M 57.214844 -46.625 "/></g></g></g></svg>