<svg xmlns="http://www.w3.org/2000/svg" xmlns:xlink="http://www.w3.org/1999/xlink" width="768" zoomAndPan="magnify" viewBox="0 0 576 576" height="768" preserveAspectRatio="xMidYMid meet" version="1.0"><path fill="#efede7" d="M 288 0 C 128.914062 0 0 128.914062 0 288 C 0 447.085938 128.914062 576 288 576 C 447.085938 576 576 447.085938 576 288 C 575.75 128.914062 446.835938 0 288 0 Z M 456.0625 223.167969 C 456.0625 223.167969 461.050781 333.382812 377.265625 401.703125 C 251.84375 503.6875 116.445312 420.902344 116.445312 420.902344 C 116.445312 420.902344 149.359375 421.402344 178.535156 413.671875 C 207.460938 405.941406 228.40625 386.992188 228.40625 386.992188 C 228.40625 386.992188 196.738281 380.507812 180.28125 368.539062 C 163.824219 356.570312 157.339844 333.632812 157.339844 333.632812 C 157.339844 333.632812 168.3125 334.628906 175.042969 334.378906 C 182.027344 334.128906 190.253906 330.886719 190.253906 330.886719 C 190.253906 330.886719 167.5625 328.144531 146.367188 304.457031 C 129.664062 285.757812 130.910156 254.585938 130.910156 254.585938 C 130.910156 254.585938 140.882812 260.570312 146.121094 261.816406 C 151.355469 263.3125 161.578125 263.3125 161.578125 263.3125 C 161.578125 263.3125 141.632812 251.59375 132.902344 220.925781 C 124.175781 190.503906 140.882812 159.585938 140.882812 159.585938 C 140.882812 159.585938 170.554688 195.492188 214.441406 218.429688 C 258.328125 241.371094 299.71875 240.625 299.71875 240.625 C 299.71875 240.625 293.734375 222.421875 304.207031 195.492188 C 314.679688 168.5625 338.367188 149.113281 374.523438 146.367188 C 410.679688 143.375 433.871094 170.804688 433.871094 170.804688 C 433.871094 170.804688 445.089844 168.808594 457.808594 164.074219 C 470.523438 159.585938 483.242188 153.601562 483.242188 153.601562 C 483.242188 153.601562 478.753906 167.3125 470.027344 178.035156 C 461.296875 188.757812 451.574219 195.242188 451.574219 195.242188 C 451.574219 195.242188 463.042969 194.492188 474.515625 191.253906 C 485.984375 188.011719 492.21875 184.769531 492.21875 184.769531 C 479.003906 206.710938 456.0625 223.167969 456.0625 223.167969 Z M 456.0625 223.167969 " fill-opacity="1" fill-rule="nonzero"/><path fill="#efede7" d="M 288 0 C 128.914062 0 0 128.914062 0 288 C 0 447.085938 128.914062 576 288 576 C 447.085938 576 576 447.085938 576 288 C 575.75 128.914062 446.835938 0 288 0 Z M 456.0625 223.167969 C 456.0625 223.167969 461.050781 333.382812 377.265625 401.703125 C 251.84375 503.6875 116.445312 420.902344 116.445312 420.902344 C 116.445312 420.902344 149.359375 421.402344 178.535156 413.671875 C 207.460938 405.941406 228.40625 386.992188 228.40625 386.992188 C 228.40625 386.992188 196.738281 380.507812 180.28125 368.539062 C 163.824219 356.570312 157.339844 333.632812 157.339844 333.632812 C 157.339844 333.632812 168.3125 334.628906 175.042969 334.378906 C 182.027344 334.128906 190.253906 330.886719 190.253906 330.886719 C 190.253906 330.886719 167.5625 328.144531 146.367188 304.457031 C 129.664062 285.757812 130.910156 254.585938 130.910156 254.585938 C 130.910156 254.585938 140.882812 260.570312 146.121094 261.816406 C 151.355469 263.3125 161.578125 263.3125 161.578125 263.3125 C 161.578125 263.3125 141.632812 251.59375 132.902344 220.925781 C 124.175781 190.503906 140.882812 159.585938 140.882812 159.585938 C 140.882812 159.585938 170.554688 195.492188 214.441406 218.429688 C 258.328125 241.371094 299.71875 240.625 299.71875 240.625 C 299.71875 240.625 293.734375 222.421875 304.207031 195.492188 C 314.679688 168.5625 338.367188 149.113281 374.523438 146.367188 C 410.679688 143.375 433.871094 170.804688 433.871094 170.804688 C 433.871094 170.804688 445.089844 168.808594 457.808594 164.074219 C 470.523438 159.585938 483.242188 153.601562 483.242188 153.601562 C 483.242188 153.601562 478.753906 167.3125 470.027344 178.035156 C 461.296875 188.757812 451.574219 195.242188 451.574219 195.242188 C 451.574219 195.242188 463.042969 194.492188 474.515625 191.253906 C 485.984375 188.011719 492.21875 184.769531 492.21875 184.769531 C 479.003906 206.710938 456.0625 223.167969 456.0625 223.167969 Z M 456.0625 223.167969 " fill-opacity="1" fill-rule="nonzero"/></svg>