<svg xmlns="http://www.w3.org/2000/svg" xmlns:xlink="http://www.w3.org/1999/xlink" width="1270" zoomAndPan="magnify" viewBox="0 0 952.5 170.249993" height="227" preserveAspectRatio="xMidYMid meet" version="1.0"><defs><g/></defs><g fill="#00634d" fill-opacity="1"><g transform="translate(109.193215, 111.195269)"><g><path d="M 29.863281 0 L 40.664062 0 L 51.785156 -31.558594 L 62.800781 0 L 73.601562 0 L 97.003906 -66.824219 C 98.0625 -69.894531 100.074219 -71.589844 103.464844 -71.484375 L 103.464844 -72.4375 C 98.488281 -72.4375 90.863281 -72.4375 85.777344 -72.4375 L 85.777344 -71.484375 C 89.0625 -71.589844 90.96875 -70.847656 92.027344 -67.777344 C 92.238281 -66.929688 92.558594 -66.1875 92.769531 -65.445312 C 93.402344 -63.644531 93.296875 -62.058594 92.664062 -60.257812 L 72.542969 -2.648438 L 50.195312 -66.503906 C 48.925781 -70 50.832031 -71.589844 54.328125 -71.484375 L 54.328125 -72.4375 L 32.933594 -72.4375 L 32.933594 -71.484375 C 36.640625 -71.589844 38.335938 -69.683594 39.5 -66.503906 L 50.726562 -34.417969 L 39.605469 -2.648438 L 17.261719 -66.503906 C 15.992188 -70 17.898438 -71.589844 21.390625 -71.484375 L 21.390625 -72.4375 L 0 -72.4375 L 0 -71.484375 C 3.707031 -71.589844 5.402344 -69.683594 6.566406 -66.503906 Z M 29.863281 0 "/></g></g></g><g fill="#00634d" fill-opacity="1"><g transform="translate(215.622783, 111.195269)"><g><path d="M 66.082031 -4.34375 L 65.339844 -4.976562 C 62.691406 -2.859375 59.832031 -5.1875 58.457031 -7.203125 C 53.902344 -13.980469 52.84375 -26.261719 50.515625 -37.066406 C 48.820312 -45.644531 46.914062 -57.503906 35.476562 -57.503906 C 27.214844 -57.503906 21.074219 -51.148438 16.308594 -44.796875 L 16.308594 -79.425781 C 13.449219 -75.296875 6.25 -72.4375 0 -72.4375 L 0 -71.484375 C 4.554688 -71.695312 6.777344 -68.730469 6.777344 -57.503906 L 6.777344 -14.933594 C 6.777344 -3.707031 4.554688 -0.742188 0 -0.953125 L 0 0 L 23.085938 0 L 23.085938 -0.953125 C 18.53125 -0.742188 16.308594 -3.707031 16.308594 -14.933594 L 16.308594 -41.40625 C 17.683594 -43.417969 19.484375 -45.644531 21.496094 -47.550781 C 29.121094 -55.066406 36.113281 -54.855469 39.289062 -43.632812 C 42.042969 -34.101562 42.679688 -20.121094 46.277344 -10.484375 C 48.394531 -4.765625 51.574219 0 58.351562 0 C 61.421875 0 64.492188 -1.269531 66.082031 -4.34375 Z M 66.082031 -4.34375 "/></g></g></g><g fill="#00634d" fill-opacity="1"><g transform="translate(284.14013, 111.195269)"><g><path d="M 60.257812 -4.34375 L 59.515625 -4.976562 C 56.972656 -2.859375 54.007812 -5.1875 52.738281 -7.203125 C 48.183594 -13.980469 47.125 -26.261719 44.796875 -37.066406 C 41.9375 -51.042969 38.125 -57.503906 22.449219 -57.503906 C 14.296875 -57.503906 6.355469 -55.703125 0.105469 -52.738281 L 3.496094 -43.84375 C 5.824219 -47.019531 10.800781 -51.996094 15.777344 -54.222656 C 23.722656 -57.820312 30.816406 -53.160156 26.261719 -44.265625 C 21.074219 -33.78125 0.953125 -30.816406 0 -15.039062 C -0.53125 -5.1875 6.566406 0 15.777344 0 C 30.816406 0 36.21875 -11.859375 37.171875 -24.464844 C 38.019531 -19.484375 39.078125 -14.613281 40.558594 -10.484375 C 42.679688 -4.765625 45.75 0 52.632812 0 C 55.703125 0 58.667969 -1.269531 60.257812 -4.34375 Z M 34.417969 -40.03125 C 36.113281 -33.039062 35.792969 -23.296875 33.359375 -16.414062 C 31.027344 -9.742188 24.464844 -3.390625 16.625 -5.296875 C 10.589844 -6.777344 8.894531 -12.285156 9.953125 -17.472656 C 12.179688 -27.640625 23.617188 -31.347656 28.167969 -39.5 C 29.863281 -42.464844 30.816406 -46.703125 29.96875 -50.195312 C 32.085938 -47.441406 33.464844 -43.84375 34.417969 -40.03125 Z M 34.417969 -40.03125 "/></g></g></g><g fill="#00634d" fill-opacity="1"><g transform="translate(346.832981, 111.195269)"><g><path d="M 0 -57.503906 L 0 -55.597656 L 6.777344 -55.597656 L 6.777344 -13.027344 C 6.777344 -6.671875 9.320312 0 16.730469 0 C 22.558594 0 26.371094 -4.554688 29.546875 -9 L 28.804688 -9.636719 C 22.769531 -2.542969 16.308594 -2.4375 16.308594 -13.027344 L 16.308594 -55.597656 L 29.546875 -55.597656 L 29.546875 -57.503906 L 16.308594 -57.503906 L 16.308594 -66.71875 L 15.355469 -66.71875 C 12.496094 -61.210938 5.402344 -57.503906 0 -57.503906 Z M 0 -57.503906 "/></g></g></g><g fill="#00634d" fill-opacity="1"><g transform="translate(379.132517, 111.195269)"><g/></g></g><g fill="#00634d" fill-opacity="1"><g transform="translate(410.161239, 111.195269)"><g><path d="M 0 -57.503906 L 0 -55.597656 L 6.777344 -55.597656 L 6.777344 -13.027344 C 6.777344 -6.671875 9.320312 0 16.730469 0 C 22.558594 0 26.371094 -4.554688 29.546875 -9 L 28.804688 -9.636719 C 22.769531 -2.542969 16.308594 -2.4375 16.308594 -13.027344 L 16.308594 -55.597656 L 29.546875 -55.597656 L 29.546875 -57.503906 L 16.308594 -57.503906 L 16.308594 -66.71875 L 15.355469 -66.71875 C 12.496094 -61.210938 5.402344 -57.503906 0 -57.503906 Z M 0 -57.503906 "/></g></g></g><g fill="#00634d" fill-opacity="1"><g transform="translate(442.460774, 111.195269)"><g><path d="M 66.082031 -4.34375 L 65.339844 -4.976562 C 62.691406 -2.859375 59.832031 -5.1875 58.457031 -7.203125 C 53.902344 -13.980469 52.84375 -26.261719 50.515625 -37.066406 C 48.820312 -45.644531 46.914062 -57.503906 35.476562 -57.503906 C 27.214844 -57.503906 21.074219 -51.148438 16.308594 -44.796875 L 16.308594 -79.425781 C 13.449219 -75.296875 6.25 -72.4375 0 -72.4375 L 0 -71.484375 C 4.554688 -71.695312 6.777344 -68.730469 6.777344 -57.503906 L 6.777344 -14.933594 C 6.777344 -3.707031 4.554688 -0.742188 0 -0.953125 L 0 0 L 23.085938 0 L 23.085938 -0.953125 C 18.53125 -0.742188 16.308594 -3.707031 16.308594 -14.933594 L 16.308594 -41.40625 C 17.683594 -43.417969 19.484375 -45.644531 21.496094 -47.550781 C 29.121094 -55.066406 36.113281 -54.855469 39.289062 -43.632812 C 42.042969 -34.101562 42.679688 -20.121094 46.277344 -10.484375 C 48.394531 -4.765625 51.574219 0 58.351562 0 C 61.421875 0 64.492188 -1.269531 66.082031 -4.34375 Z M 66.082031 -4.34375 "/></g></g></g><g fill="#00634d" fill-opacity="1"><g transform="translate(510.978121, 111.195269)"><g><path d="M 30.179688 -57.503906 C 14.402344 -57.503906 1.484375 -44.585938 1.484375 -28.699219 C 1.484375 -12.8125 14.402344 0 30.179688 0 C 43.738281 0 54.960938 -9.320312 58.140625 -21.816406 L 57.1875 -21.816406 C 53.585938 -11.4375 45.539062 -5.296875 37.066406 -4.34375 C 23.511719 -2.859375 13.765625 -14.191406 10.90625 -26.261719 C 10.273438 -28.910156 10.058594 -31.453125 9.953125 -33.992188 C 24.355469 -33.992188 39.183594 -33.992188 53.585938 -33.992188 C 53.691406 -45.324219 44.902344 -57.503906 30.179688 -57.503906 Z M 44.054688 -35.898438 L 10.058594 -35.898438 C 10.484375 -44.476562 14.613281 -51.679688 21.285156 -54.007812 C 30.816406 -57.398438 42.570312 -50.300781 44.054688 -35.898438 Z M 44.054688 -35.898438 "/></g></g></g><g fill="#00634d" fill-opacity="1"><g transform="translate(572.717863, 111.195269)"><g><path d="M 16.625 -51.574219 C 15.355469 -55.175781 17.261719 -56.761719 20.863281 -56.550781 L 20.863281 -57.503906 L 0 -57.503906 L 0 -56.550781 C 3.601562 -56.761719 5.402344 -54.855469 6.566406 -51.574219 L 23.085938 -4.34375 C 24.25 -1.269531 25.523438 0 28.910156 0 L 30.394531 0 L 27.746094 7.519531 C 26.371094 11.4375 24.144531 14.71875 21.390625 16.839844 C 12.707031 23.511719 6.035156 15.355469 0.953125 8.367188 L -2.4375 17.261719 C 1.375 20.332031 6.460938 21.921875 11.4375 21.921875 C 20.542969 21.921875 26.582031 16.414062 29.546875 8.15625 L 50.515625 -51.890625 C 51.574219 -55.066406 53.691406 -56.761719 56.972656 -56.550781 L 56.972656 -57.503906 C 51.996094 -57.503906 44.371094 -57.503906 39.289062 -57.503906 L 39.289062 -56.550781 C 42.570312 -56.761719 44.476562 -55.914062 45.539062 -52.84375 C 45.75 -52.101562 46.066406 -51.363281 46.382812 -50.515625 C 46.914062 -48.820312 46.808594 -47.125 46.277344 -45.429688 L 32.511719 -6.25 Z M 16.625 -51.574219 "/></g></g></g><g fill="#00634d" fill-opacity="1"><g transform="translate(632.339628, 111.195269)"><g/></g></g><g fill="#00634d" fill-opacity="1"><g transform="translate(663.368326, 111.195269)"><g><path d="M 2.4375 -23.191406 L 1.484375 -23.191406 L 1.484375 -8.789062 C 8.472656 -2.859375 17.367188 0 27.109375 0 C 34.3125 0 42.570312 -1.90625 46.808594 -7.519531 C 51.042969 -13.027344 50.832031 -22.34375 45.960938 -27.324219 C 38.546875 -34.839844 23.617188 -33.886719 14.191406 -38.652344 C 6.25 -42.679688 9 -49.667969 14.71875 -53.054688 C 18.425781 -55.386719 24.355469 -55.914062 28.488281 -55.492188 C 37.59375 -54.644531 42.570312 -48.078125 44.902344 -43.84375 L 48.289062 -52.738281 C 42.464844 -55.808594 34.839844 -57.503906 27.214844 -57.503906 C 22.980469 -57.503906 18.851562 -56.972656 15.039062 -55.808594 C 9.109375 -53.902344 1.484375 -49.03125 1.484375 -41.832031 C 1.484375 -33.992188 7.519531 -30.710938 13.449219 -28.59375 C 21.816406 -25.628906 32.195312 -24.886719 38.546875 -21.390625 C 43.101562 -18.746094 45.007812 -14.402344 43.523438 -10.273438 C 41.195312 -3.8125 33.359375 -2.011719 27.429688 -1.90625 C 15.777344 -1.800781 5.402344 -11.648438 2.4375 -23.191406 Z M 2.4375 -23.191406 "/></g></g></g><g fill="#00634d" fill-opacity="1"><g transform="translate(719.81306, 111.195269)"><g><path d="M 60.257812 -4.34375 L 59.515625 -4.976562 C 56.972656 -2.859375 54.007812 -5.1875 52.738281 -7.203125 C 48.183594 -13.980469 47.125 -26.261719 44.796875 -37.066406 C 41.9375 -51.042969 38.125 -57.503906 22.449219 -57.503906 C 14.296875 -57.503906 6.355469 -55.703125 0.105469 -52.738281 L 3.496094 -43.84375 C 5.824219 -47.019531 10.800781 -51.996094 15.777344 -54.222656 C 23.722656 -57.820312 30.816406 -53.160156 26.261719 -44.265625 C 21.074219 -33.78125 0.953125 -30.816406 0 -15.039062 C -0.53125 -5.1875 6.566406 0 15.777344 0 C 30.816406 0 36.21875 -11.859375 37.171875 -24.464844 C 38.019531 -19.484375 39.078125 -14.613281 40.558594 -10.484375 C 42.679688 -4.765625 45.75 0 52.632812 0 C 55.703125 0 58.667969 -1.269531 60.257812 -4.34375 Z M 34.417969 -40.03125 C 36.113281 -33.039062 35.792969 -23.296875 33.359375 -16.414062 C 31.027344 -9.742188 24.464844 -3.390625 16.625 -5.296875 C 10.589844 -6.777344 8.894531 -12.285156 9.953125 -17.472656 C 12.179688 -27.640625 23.617188 -31.347656 28.167969 -39.5 C 29.863281 -42.464844 30.816406 -46.703125 29.96875 -50.195312 C 32.085938 -47.441406 33.464844 -43.84375 34.417969 -40.03125 Z M 34.417969 -40.03125 "/></g></g></g><g fill="#00634d" fill-opacity="1"><g transform="translate(782.505911, 111.195269)"><g><path d="M 16.625 -51.574219 C 15.355469 -55.175781 17.261719 -56.761719 20.863281 -56.550781 L 20.863281 -57.503906 L 0 -57.503906 L 0 -56.550781 C 3.601562 -56.761719 5.402344 -54.855469 6.566406 -51.574219 L 23.085938 -4.34375 C 24.25 -1.269531 25.523438 0 28.910156 0 L 30.394531 0 L 27.746094 7.519531 C 26.371094 11.4375 24.144531 14.71875 21.390625 16.839844 C 12.707031 23.511719 6.035156 15.355469 0.953125 8.367188 L -2.4375 17.261719 C 1.375 20.332031 6.460938 21.921875 11.4375 21.921875 C 20.542969 21.921875 26.582031 16.414062 29.546875 8.15625 L 50.515625 -51.890625 C 51.574219 -55.066406 53.691406 -56.761719 56.972656 -56.550781 L 56.972656 -57.503906 C 51.996094 -57.503906 44.371094 -57.503906 39.289062 -57.503906 L 39.289062 -56.550781 C 42.570312 -56.761719 44.476562 -55.914062 45.539062 -52.84375 C 45.75 -52.101562 46.066406 -51.363281 46.382812 -50.515625 C 46.914062 -48.820312 46.808594 -47.125 46.277344 -45.429688 L 32.511719 -6.25 Z M 16.625 -51.574219 "/></g></g></g><g fill="#00634d" fill-opacity="1"><g transform="translate(109.193215, 111.195269)"><g><path d="M 29.863281 0 L 40.664062 0 L 51.785156 -31.558594 L 62.800781 0 L 73.601562 0 L 97.003906 -66.824219 C 98.0625 -69.894531 100.074219 -71.589844 103.464844 -71.484375 L 103.464844 -72.4375 C 98.488281 -72.4375 90.863281 -72.4375 85.777344 -72.4375 L 85.777344 -71.484375 C 89.0625 -71.589844 90.96875 -70.847656 92.027344 -67.777344 C 92.238281 -66.929688 92.558594 -66.1875 92.769531 -65.445312 C 93.402344 -63.644531 93.296875 -62.058594 92.664062 -60.257812 L 72.542969 -2.648438 L 50.195312 -66.503906 C 48.925781 -70 50.832031 -71.589844 54.328125 -71.484375 L 54.328125 -72.4375 L 32.933594 -72.4375 L 32.933594 -71.484375 C 36.640625 -71.589844 38.335938 -69.683594 39.5 -66.503906 L 50.726562 -34.417969 L 39.605469 -2.648438 L 17.261719 -66.503906 C 15.992188 -70 17.898438 -71.589844 21.390625 -71.484375 L 21.390625 -72.4375 L 0 -72.4375 L 0 -71.484375 C 3.707031 -71.589844 5.402344 -69.683594 6.566406 -66.503906 Z M 29.863281 0 "/></g></g></g><g fill="#00634d" fill-opacity="1"><g transform="translate(215.622783, 111.195269)"><g><path d="M 66.082031 -4.34375 L 65.339844 -4.976562 C 62.691406 -2.859375 59.832031 -5.1875 58.457031 -7.203125 C 53.902344 -13.980469 52.84375 -26.261719 50.515625 -37.066406 C 48.820312 -45.644531 46.914062 -57.503906 35.476562 -57.503906 C 27.214844 -57.503906 21.074219 -51.148438 16.308594 -44.796875 L 16.308594 -79.425781 C 13.449219 -75.296875 6.25 -72.4375 0 -72.4375 L 0 -71.484375 C 4.554688 -71.695312 6.777344 -68.730469 6.777344 -57.503906 L 6.777344 -14.933594 C 6.777344 -3.707031 4.554688 -0.742188 0 -0.953125 L 0 0 L 23.085938 0 L 23.085938 -0.953125 C 18.53125 -0.742188 16.308594 -3.707031 16.308594 -14.933594 L 16.308594 -41.40625 C 17.683594 -43.417969 19.484375 -45.644531 21.496094 -47.550781 C 29.121094 -55.066406 36.113281 -54.855469 39.289062 -43.632812 C 42.042969 -34.101562 42.679688 -20.121094 46.277344 -10.484375 C 48.394531 -4.765625 51.574219 0 58.351562 0 C 61.421875 0 64.492188 -1.269531 66.082031 -4.34375 Z M 66.082031 -4.34375 "/></g></g></g><g fill="#00634d" fill-opacity="1"><g transform="translate(284.14013, 111.195269)"><g><path d="M 60.257812 -4.34375 L 59.515625 -4.976562 C 56.972656 -2.859375 54.007812 -5.1875 52.738281 -7.203125 C 48.183594 -13.980469 47.125 -26.261719 44.796875 -37.066406 C 41.9375 -51.042969 38.125 -57.503906 22.449219 -57.503906 C 14.296875 -57.503906 6.355469 -55.703125 0.105469 -52.738281 L 3.496094 -43.84375 C 5.824219 -47.019531 10.800781 -51.996094 15.777344 -54.222656 C 23.722656 -57.820312 30.816406 -53.160156 26.261719 -44.265625 C 21.074219 -33.78125 0.953125 -30.816406 0 -15.039062 C -0.53125 -5.1875 6.566406 0 15.777344 0 C 30.816406 0 36.21875 -11.859375 37.171875 -24.464844 C 38.019531 -19.484375 39.078125 -14.613281 40.558594 -10.484375 C 42.679688 -4.765625 45.75 0 52.632812 0 C 55.703125 0 58.667969 -1.269531 60.257812 -4.34375 Z M 34.417969 -40.03125 C 36.113281 -33.039062 35.792969 -23.296875 33.359375 -16.414062 C 31.027344 -9.742188 24.464844 -3.390625 16.625 -5.296875 C 10.589844 -6.777344 8.894531 -12.285156 9.953125 -17.472656 C 12.179688 -27.640625 23.617188 -31.347656 28.167969 -39.5 C 29.863281 -42.464844 30.816406 -46.703125 29.96875 -50.195312 C 32.085938 -47.441406 33.464844 -43.84375 34.417969 -40.03125 Z M 34.417969 -40.03125 "/></g></g></g><g fill="#00634d" fill-opacity="1"><g transform="translate(346.832981, 111.195269)"><g><path d="M 0 -57.503906 L 0 -55.597656 L 6.777344 -55.597656 L 6.777344 -13.027344 C 6.777344 -6.671875 9.320312 0 16.730469 0 C 22.558594 0 26.371094 -4.554688 29.546875 -9 L 28.804688 -9.636719 C 22.769531 -2.542969 16.308594 -2.4375 16.308594 -13.027344 L 16.308594 -55.597656 L 29.546875 -55.597656 L 29.546875 -57.503906 L 16.308594 -57.503906 L 16.308594 -66.71875 L 15.355469 -66.71875 C 12.496094 -61.210938 5.402344 -57.503906 0 -57.503906 Z M 0 -57.503906 "/></g></g></g><g fill="#00634d" fill-opacity="1"><g transform="translate(379.132517, 111.195269)"><g/></g></g><g fill="#00634d" fill-opacity="1"><g transform="translate(410.161239, 111.195269)"><g><path d="M 0 -57.503906 L 0 -55.597656 L 6.777344 -55.597656 L 6.777344 -13.027344 C 6.777344 -6.671875 9.320312 0 16.730469 0 C 22.558594 0 26.371094 -4.554688 29.546875 -9 L 28.804688 -9.636719 C 22.769531 -2.542969 16.308594 -2.4375 16.308594 -13.027344 L 16.308594 -55.597656 L 29.546875 -55.597656 L 29.546875 -57.503906 L 16.308594 -57.503906 L 16.308594 -66.71875 L 15.355469 -66.71875 C 12.496094 -61.210938 5.402344 -57.503906 0 -57.503906 Z M 0 -57.503906 "/></g></g></g><g fill="#00634d" fill-opacity="1"><g transform="translate(442.460774, 111.195269)"><g><path d="M 66.082031 -4.34375 L 65.339844 -4.976562 C 62.691406 -2.859375 59.832031 -5.1875 58.457031 -7.203125 C 53.902344 -13.980469 52.84375 -26.261719 50.515625 -37.066406 C 48.820312 -45.644531 46.914062 -57.503906 35.476562 -57.503906 C 27.214844 -57.503906 21.074219 -51.148438 16.308594 -44.796875 L 16.308594 -79.425781 C 13.449219 -75.296875 6.25 -72.4375 0 -72.4375 L 0 -71.484375 C 4.554688 -71.695312 6.777344 -68.730469 6.777344 -57.503906 L 6.777344 -14.933594 C 6.777344 -3.707031 4.554688 -0.742188 0 -0.953125 L 0 0 L 23.085938 0 L 23.085938 -0.953125 C 18.53125 -0.742188 16.308594 -3.707031 16.308594 -14.933594 L 16.308594 -41.40625 C 17.683594 -43.417969 19.484375 -45.644531 21.496094 -47.550781 C 29.121094 -55.066406 36.113281 -54.855469 39.289062 -43.632812 C 42.042969 -34.101562 42.679688 -20.121094 46.277344 -10.484375 C 48.394531 -4.765625 51.574219 0 58.351562 0 C 61.421875 0 64.492188 -1.269531 66.082031 -4.34375 Z M 66.082031 -4.34375 "/></g></g></g><g fill="#00634d" fill-opacity="1"><g transform="translate(510.978121, 111.195269)"><g><path d="M 30.179688 -57.503906 C 14.402344 -57.503906 1.484375 -44.585938 1.484375 -28.699219 C 1.484375 -12.8125 14.402344 0 30.179688 0 C 43.738281 0 54.960938 -9.320312 58.140625 -21.816406 L 57.1875 -21.816406 C 53.585938 -11.4375 45.539062 -5.296875 37.066406 -4.34375 C 23.511719 -2.859375 13.765625 -14.191406 10.90625 -26.261719 C 10.273438 -28.910156 10.058594 -31.453125 9.953125 -33.992188 C 24.355469 -33.992188 39.183594 -33.992188 53.585938 -33.992188 C 53.691406 -45.324219 44.902344 -57.503906 30.179688 -57.503906 Z M 44.054688 -35.898438 L 10.058594 -35.898438 C 10.484375 -44.476562 14.613281 -51.679688 21.285156 -54.007812 C 30.816406 -57.398438 42.570312 -50.300781 44.054688 -35.898438 Z M 44.054688 -35.898438 "/></g></g></g><g fill="#00634d" fill-opacity="1"><g transform="translate(572.717863, 111.195269)"><g><path d="M 16.625 -51.574219 C 15.355469 -55.175781 17.261719 -56.761719 20.863281 -56.550781 L 20.863281 -57.503906 L 0 -57.503906 L 0 -56.550781 C 3.601562 -56.761719 5.402344 -54.855469 6.566406 -51.574219 L 23.085938 -4.34375 C 24.25 -1.269531 25.523438 0 28.910156 0 L 30.394531 0 L 27.746094 7.519531 C 26.371094 11.4375 24.144531 14.71875 21.390625 16.839844 C 12.707031 23.511719 6.035156 15.355469 0.953125 8.367188 L -2.4375 17.261719 C 1.375 20.332031 6.460938 21.921875 11.4375 21.921875 C 20.542969 21.921875 26.582031 16.414062 29.546875 8.15625 L 50.515625 -51.890625 C 51.574219 -55.066406 53.691406 -56.761719 56.972656 -56.550781 L 56.972656 -57.503906 C 51.996094 -57.503906 44.371094 -57.503906 39.289062 -57.503906 L 39.289062 -56.550781 C 42.570312 -56.761719 44.476562 -55.914062 45.539062 -52.84375 C 45.75 -52.101562 46.066406 -51.363281 46.382812 -50.515625 C 46.914062 -48.820312 46.808594 -47.125 46.277344 -45.429688 L 32.511719 -6.25 Z M 16.625 -51.574219 "/></g></g></g><g fill="#00634d" fill-opacity="1"><g transform="translate(632.339628, 111.195269)"><g/></g></g><g fill="#00634d" fill-opacity="1"><g transform="translate(663.368326, 111.195269)"><g><path d="M 2.4375 -23.191406 L 1.484375 -23.191406 L 1.484375 -8.789062 C 8.472656 -2.859375 17.367188 0 27.109375 0 C 34.3125 0 42.570312 -1.90625 46.808594 -7.519531 C 51.042969 -13.027344 50.832031 -22.34375 45.960938 -27.324219 C 38.546875 -34.839844 23.617188 -33.886719 14.191406 -38.652344 C 6.25 -42.679688 9 -49.667969 14.71875 -53.054688 C 18.425781 -55.386719 24.355469 -55.914062 28.488281 -55.492188 C 37.59375 -54.644531 42.570312 -48.078125 44.902344 -43.84375 L 48.289062 -52.738281 C 42.464844 -55.808594 34.839844 -57.503906 27.214844 -57.503906 C 22.980469 -57.503906 18.851562 -56.972656 15.039062 -55.808594 C 9.109375 -53.902344 1.484375 -49.03125 1.484375 -41.832031 C 1.484375 -33.992188 7.519531 -30.710938 13.449219 -28.59375 C 21.816406 -25.628906 32.195312 -24.886719 38.546875 -21.390625 C 43.101562 -18.746094 45.007812 -14.402344 43.523438 -10.273438 C 41.195312 -3.8125 33.359375 -2.011719 27.429688 -1.90625 C 15.777344 -1.800781 5.402344 -11.648438 2.4375 -23.191406 Z M 2.4375 -23.191406 "/></g></g></g><g fill="#00634d" fill-opacity="1"><g transform="translate(719.81306, 111.195269)"><g><path d="M 60.257812 -4.34375 L 59.515625 -4.976562 C 56.972656 -2.859375 54.007812 -5.1875 52.738281 -7.203125 C 48.183594 -13.980469 47.125 -26.261719 44.796875 -37.066406 C 41.9375 -51.042969 38.125 -57.503906 22.449219 -57.503906 C 14.296875 -57.503906 6.355469 -55.703125 0.105469 -52.738281 L 3.496094 -43.84375 C 5.824219 -47.019531 10.800781 -51.996094 15.777344 -54.222656 C 23.722656 -57.820312 30.816406 -53.160156 26.261719 -44.265625 C 21.074219 -33.78125 0.953125 -30.816406 0 -15.039062 C -0.53125 -5.1875 6.566406 0 15.777344 0 C 30.816406 0 36.21875 -11.859375 37.171875 -24.464844 C 38.019531 -19.484375 39.078125 -14.613281 40.558594 -10.484375 C 42.679688 -4.765625 45.75 0 52.632812 0 C 55.703125 0 58.667969 -1.269531 60.257812 -4.34375 Z M 34.417969 -40.03125 C 36.113281 -33.039062 35.792969 -23.296875 33.359375 -16.414062 C 31.027344 -9.742188 24.464844 -3.390625 16.625 -5.296875 C 10.589844 -6.777344 8.894531 -12.285156 9.953125 -17.472656 C 12.179688 -27.640625 23.617188 -31.347656 28.167969 -39.5 C 29.863281 -42.464844 30.816406 -46.703125 29.96875 -50.195312 C 32.085938 -47.441406 33.464844 -43.84375 34.417969 -40.03125 Z M 34.417969 -40.03125 "/></g></g></g><g fill="#00634d" fill-opacity="1"><g transform="translate(782.505911, 111.195269)"><g><path d="M 16.625 -51.574219 C 15.355469 -55.175781 17.261719 -56.761719 20.863281 -56.550781 L 20.863281 -57.503906 L 0 -57.503906 L 0 -56.550781 C 3.601562 -56.761719 5.402344 -54.855469 6.566406 -51.574219 L 23.085938 -4.34375 C 24.25 -1.269531 25.523438 0 28.910156 0 L 30.394531 0 L 27.746094 7.519531 C 26.371094 11.4375 24.144531 14.71875 21.390625 16.839844 C 12.707031 23.511719 6.035156 15.355469 0.953125 8.367188 L -2.4375 17.261719 C 1.375 20.332031 6.460938 21.921875 11.4375 21.921875 C 20.542969 21.921875 26.582031 16.414062 29.546875 8.15625 L 50.515625 -51.890625 C 51.574219 -55.066406 53.691406 -56.761719 56.972656 -56.550781 L 56.972656 -57.503906 C 51.996094 -57.503906 44.371094 -57.503906 39.289062 -57.503906 L 39.289062 -56.550781 C 42.570312 -56.761719 44.476562 -55.914062 45.539062 -52.84375 C 45.75 -52.101562 46.066406 -51.363281 46.382812 -50.515625 C 46.914062 -48.820312 46.808594 -47.125 46.277344 -45.429688 L 32.511719 -6.25 Z M 16.625 -51.574219 "/></g></g></g></svg>